testOutput_glyphs.ufo
<glyph name="exclam" format="1">
  <advance width="102"/>
  <unicode hex="0021"/>
  <outline>
    <contour>
      <point x="56" y="709" type="line"/>
      <point x="45" y="709" type="line"/>
      <point x="47" y="152" type="line"/>
      <point x="55" y="152" type="line"/>
    </contour>
    <contour>
      <point x="45" y="77" type="line"/>
      <point x="45" y="0" type="line"/>
      <point x="57" y="0" type="line"/>
      <point x="57" y="77" type="line"/>
    </contour>
  </outline>
</glyph>
<glyph name="numbersign" format="1">
  <advance width="281"/>
  <unicode hex="0023"/>
  <outline>
    <contour>
      <point x="158" y="261" type="line"/>
      <point x="110" y="0" type="line"/>
      <point x="124" y="0" type="line"/>
      <point x="172" y="261" type="line"/>
      <point x="239" y="261" type="line"/>
      <point x="241" y="273" type="line"/>
      <point x="174" y="273" type="line"/>
      <point x="205" y="433" type="line"/>
      <point x="271" y="433" type="line"/>
      <point x="273" y="445" type="line"/>
      <point x="206" y="445" type="line"/>
      <point x="252" y="692" type="line"/>
      <point x="238" y="692" type="line"/>
      <point x="192" y="445" type="line"/>
      <point x="124" y="445" type="line"/>
      <point x="170" y="692" type="line"/>
      <point x="156" y="692" type="line"/>
      <point x="110" y="445" type="line"/>
      <point x="42" y="445" type="line"/>
      <point x="40" y="433" type="line"/>
      <point x="108" y="433" type="line"/>
      <point x="77" y="273" type="line"/>
      <point x="10" y="273" type="line"/>
      <point x="8" y="261" type="line"/>
      <point x="76" y="261" type="line"/>
      <point x="27" y="0" type="line"/>
      <point x="41" y="0" type="line"/>
      <point x="90" y="261" type="line"/>
    </contour>
    <contour>
      <point x="160" y="273" type="line"/>
      <point x="91" y="273" type="line"/>
      <point x="122" y="433" type="line"/>
      <point x="191" y="433" type="line"/>
    </contour>
  </outline>
</glyph>
<glyph name="dollar" format="1">
  <advance width="274"/>
  <unicode hex="0024"/>
  <outline>
    <contour>
      <point x="141" y="663" type="line"/>
      <point x="188" y="660"/>
      <point x="202" y="618"/>
      <point x="207" y="572" type="curve"/>
      <point x="220" y="580" type="line"/>
      <point x="214" y="632"/>
      <point x="197" y="671"/>
      <point x="141" y="675" type="curve"/>
      <point x="141" y="748" type="line"/>
      <point x="127" y="748" type="line"/>
      <point x="127" y="675" type="line"/>
      <point x="63" y="672"/>
      <point x="42" y="595"/>
      <point x="42" y="535" type="curve" smooth="yes"/>
      <point x="42" y="417"/>
      <point x="83" y="404"/>
      <point x="127" y="370" type="curve"/>
      <point x="127" y="24" type="line"/>
      <point x="80" y="26"/>
      <point x="60" y="54"/>
      <point x="50" y="122" type="curve"/>
      <point x="37" y="110" type="line"/>
      <point x="48" y="38"/>
      <point x="77" y="13"/>
      <point x="127" y="12" type="curve"/>
      <point x="127" y="-70" type="line"/>
      <point x="141" y="-70" type="line"/>
      <point x="141" y="12" type="line"/>
      <point x="208" y="17"/>
      <point x="235" y="96"/>
      <point x="235" y="189" type="curve" smooth="yes"/>
      <point x="235" y="314"/>
      <point x="187" y="342"/>
      <point x="141" y="374" type="curve"/>
    </contour>
    <contour>
      <point x="127" y="385" type="line"/>
      <point x="90" y="414"/>
      <point x="56" y="428"/>
      <point x="56" y="531" type="curve" smooth="yes"/>
      <point x="56" y="592"/>
      <point x="72" y="658"/>
      <point x="127" y="663" type="curve"/>
    </contour>
    <contour>
      <point x="141" y="359" type="line"/>
      <point x="182" y="328"/>
      <point x="222" y="306"/>
      <point x="222" y="189" type="curve" smooth="yes"/>
      <point x="222" y="103"/>
      <point x="195" y="28"/>
      <point x="141" y="24" type="curve"/>
    </contour>
  </outline>
</glyph>
<glyph name="percent" format="1">
  <advance width="397"/>
  <unicode hex="0025"/>
  <outline>
    <contour>
      <point x="178" y="540" type="line"/>
      <point x="178" y="645"/>
      <point x="154" y="720"/>
      <point x="101" y="720" type="curve" smooth="yes"/>
      <point x="49" y="720"/>
      <point x="26" y="645"/>
      <point x="26" y="540" type="curve" smooth="yes"/>
      <point x="26" y="434"/>
      <point x="49" y="360"/>
      <point x="101" y="360" type="curve" smooth="yes"/>
      <point x="155" y="360"/>
      <point x="178" y="434"/>
      <point x="178" y="539" type="curve"/>
    </contour>
    <contour>
      <point x="330" y="718" type="line"/>
      <point x="317" y="718" type="line"/>
      <point x="64" y="-10" type="line"/>
      <point x="78" y="-10" type="line"/>
    </contour>
    <contour>
      <point x="101" y="373" type="line"/>
      <point x="58" y="373"/>
      <point x="40" y="441"/>
      <point x="40" y="540" type="curve" smooth="yes"/>
      <point x="40" y="638"/>
      <point x="58" y="707"/>
      <point x="101" y="707" type="curve" smooth="yes"/>
      <point x="145" y="707"/>
      <point x="163" y="638"/>
      <point x="163" y="540" type="curve" smooth="yes"/>
      <point x="163" y="441"/>
      <point x="145" y="373"/>
      <point x="102" y="373" type="curve"/>
    </contour>
    <contour>
      <point x="371" y="168" type="line"/>
      <point x="371" y="273"/>
      <point x="348" y="348"/>
      <point x="295" y="348" type="curve" smooth="yes"/>
      <point x="243" y="348"/>
      <point x="219" y="273"/>
      <point x="219" y="168" type="curve" smooth="yes"/>
      <point x="219" y="62"/>
      <point x="242" y="-12"/>
      <point x="295" y="-12" type="curve" smooth="yes"/>
      <point x="348" y="-12"/>
      <point x="371" y="63"/>
      <point x="371" y="167" type="curve"/>
    </contour>
    <contour>
      <point x="295" y="1" type="line"/>
      <point x="251" y="1"/>
      <point x="234" y="70"/>
      <point x="234" y="168" type="curve" smooth="yes"/>
      <point x="234" y="266"/>
      <point x="251" y="335"/>
      <point x="295" y="335" type="curve" smooth="yes"/>
      <point x="339" y="335"/>
      <point x="357" y="266"/>
      <point x="357" y="168" type="curve" smooth="yes"/>
      <point x="357" y="70"/>
      <point x="339" y="1"/>
      <point x="296" y="1" type="curve"/>
    </contour>
  </outline>
</glyph>
<glyph name="ampersand" format="1">
  <advance width="300"/>
  <unicode hex="0026"/>
  <outline>
    <contour>
      <point x="289" y="0" type="line"/>
      <point x="275" y="22"/>
      <point x="255" y="53"/>
      <point x="233" y="100" type="curve"/>
      <point x="253" y="168"/>
      <point x="262" y="251"/>
      <point x="264" y="350" type="curve"/>
      <point x="249" y="350" type="line"/>
      <point x="248" y="253"/>
      <point x="238" y="168"/>
      <point x="225" y="108" type="curve"/>
      <point x="194" y="186"/>
      <point x="148" y="284"/>
      <point x="121" y="374" type="curve"/>
      <point x="163" y="427"/>
      <point x="195" y="477"/>
      <point x="195" y="558" type="curve" smooth="yes"/>
      <point x="195" y="638"/>
      <point x="168" y="674"/>
      <point x="132" y="674" type="curve" smooth="yes"/>
      <point x="96" y="674"/>
      <point x="71" y="635"/>
      <point x="71" y="555" type="curve" smooth="yes"/>
      <point x="71" y="488"/>
      <point x="90" y="424"/>
      <point x="110" y="375" type="curve"/>
      <point x="66" y="328"/>
      <point x="34" y="264"/>
      <point x="34" y="163" type="curve" smooth="yes"/>
      <point x="34" y="43"/>
      <point x="72" y="-14"/>
      <point x="130" y="-14" type="curve" smooth="yes"/>
      <point x="183" y="-14"/>
      <point x="215" y="38"/>
      <point x="227" y="85" type="curve"/>
      <point x="229" y="85" type="line"/>
      <point x="245" y="46"/>
      <point x="259" y="23"/>
      <point x="273" y="0" type="curve"/>
    </contour>
    <contour>
      <point x="85" y="554" type="line"/>
      <point x="85" y="621"/>
      <point x="106" y="661"/>
      <point x="134" y="661" type="curve" smooth="yes"/>
      <point x="161" y="661"/>
      <point x="181" y="624"/>
      <point x="181" y="560" type="curve" smooth="yes"/>
      <point x="181" y="484"/>
      <point x="150" y="431"/>
      <point x="116" y="383" type="curve"/>
      <point x="100" y="439"/>
      <point x="85" y="490"/>
      <point x="85" y="553" type="curve"/>
    </contour>
    <contour>
      <point x="47" y="161" type="line"/>
      <point x="47" y="245"/>
      <point x="70" y="309"/>
      <point x="112" y="365" type="curve"/>
      <point x="141" y="268"/>
      <point x="186" y="167"/>
      <point x="221" y="95" type="curve"/>
      <point x="198" y="26"/>
      <point x="167" y="-1"/>
      <point x="129" y="-1" type="curve" smooth="yes"/>
      <point x="93" y="-1"/>
      <point x="47" y="17"/>
      <point x="47" y="160" type="curve"/>
    </contour>
  </outline>
</glyph>
<glyph name="parenleft" format="1">
  <advance width="161"/>
  <unicode hex="0028"/>
  <outline>
    <contour>
      <point x="161" y="-179" type="line"/>
      <point x="133" y="-132"/>
      <point x="112" y="-78"/>
      <point x="96" y="-12" type="curve" smooth="yes"/>
      <point x="65" y="103"/>
      <point x="65" y="221"/>
      <point x="65" y="292" type="curve" smooth="yes"/>
      <point x="65" y="375"/>
      <point x="74" y="489"/>
      <point x="98" y="593" type="curve" smooth="yes"/>
      <point x="115" y="663"/>
      <point x="137" y="718"/>
      <point x="162" y="763" type="curve"/>
      <point x="149" y="768" type="line"/>
      <point x="121" y="721"/>
      <point x="101" y="677"/>
      <point x="85" y="602" type="curve" smooth="yes"/>
      <point x="65" y="513"/>
      <point x="54" y="406"/>
      <point x="53" y="292" type="curve" smooth="yes"/>
      <point x="51" y="178"/>
      <point x="62" y="74"/>
      <point x="84" y="-21" type="curve" smooth="yes"/>
      <point x="100" y="-89"/>
      <point x="121" y="-137"/>
      <point x="148" y="-184" type="curve"/>
    </contour>
  </outline>
</glyph>
<glyph name="parenright" format="1">
  <advance width="161"/>
  <unicode hex="0029"/>
  <outline>
    <contour>
      <point x="14" y="-184" type="line"/>
      <point x="41" y="-137"/>
      <point x="62" y="-89"/>
      <point x="77" y="-21" type="curve" smooth="yes"/>
      <point x="100" y="74"/>
      <point x="111" y="178"/>
      <point x="108" y="292" type="curve" smooth="yes"/>
      <point x="107" y="406"/>
      <point x="98" y="513"/>
      <point x="76" y="602" type="curve" smooth="yes"/>
      <point x="60" y="677"/>
      <point x="40" y="721"/>
      <point x="12" y="768" type="curve"/>
      <point x="-1" y="763" type="line"/>
      <point x="25" y="718"/>
      <point x="47" y="663"/>
      <point x="63" y="593" type="curve" smooth="yes"/>
      <point x="87" y="489"/>
      <point x="96" y="375"/>
      <point x="96" y="292" type="curve" smooth="yes"/>
      <point x="96" y="221"/>
      <point x="97" y="103"/>
      <point x="65" y="-12" type="curve" smooth="yes"/>
      <point x="51" y="-78"/>
      <point x="29" y="-132"/>
      <point x="1" y="-179" type="curve"/>
    </contour>
  </outline>
</glyph>
<glyph name="comma" format="1">
  <advance width="83"/>
  <unicode hex="002C"/>
  <outline>
    <contour>
      <point x="23" y="-77" type="line"/>
      <point x="31" y="-77" type="line"/>
      <point x="58" y="76" type="line"/>
      <point x="41" y="76" type="line"/>
    </contour>
  </outline>
</glyph>
<glyph name="hyphen" format="1">
  <advance width="192"/>
  <unicode hex="002D"/>
  <outline>
    <contour>
      <point x="37" y="255" type="line"/>
      <point x="37" y="243" type="line"/>
      <point x="155" y="243" type="line"/>
      <point x="155" y="255" type="line"/>
    </contour>
  </outline>
</glyph>
<glyph name="period" format="1">
  <advance width="83"/>
  <unicode hex="002E"/>
  <outline>
    <contour>
      <point x="35" y="77" type="line"/>
      <point x="35" y="0" type="line"/>
      <point x="48" y="0" type="line"/>
      <point x="48" y="77" type="line"/>
    </contour>
  </outline>
</glyph>
<glyph name="slash" format="1">
  <advance width="247"/>
  <unicode hex="002F"/>
  <outline>
    <contour>
      <point x="230" y="739" type="line"/>
      <point x="215" y="739" type="line"/>
      <point x="15" y="-12" type="line"/>
      <point x="30" y="-12" type="line"/>
    </contour>
  </outline>
</glyph>
<glyph name="zero" format="1">
  <advance width="287"/>
  <unicode hex="0030"/>
  <outline>
    <contour>
      <point x="28" y="347" type="line"/>
      <point x="28" y="106"/>
      <point x="78" y="-12"/>
      <point x="143" y="-12" type="curve" smooth="yes"/>
      <point x="208" y="-12"/>
      <point x="258" y="106"/>
      <point x="258" y="347" type="curve" smooth="yes"/>
      <point x="258" y="583"/>
      <point x="207" y="705"/>
      <point x="143" y="705" type="curve" smooth="yes"/>
      <point x="79" y="705"/>
      <point x="28" y="583"/>
      <point x="28" y="348" type="curve"/>
    </contour>
    <contour>
      <point x="143" y="694" type="line"/>
      <point x="203" y="694"/>
      <point x="245" y="575"/>
      <point x="245" y="346" type="curve" smooth="yes"/>
      <point x="245" y="106"/>
      <point x="198" y="-1"/>
      <point x="143" y="-1" type="curve" smooth="yes"/>
      <point x="88" y="-1"/>
      <point x="40" y="106"/>
      <point x="40" y="346" type="curve" smooth="yes"/>
      <point x="40" y="575"/>
      <point x="83" y="694"/>
      <point x="142" y="694" type="curve"/>
    </contour>
  </outline>
</glyph>
<glyph name="one" format="1">
  <advance width="237"/>
  <unicode hex="0031"/>
  <outline>
    <contour>
      <point x="20" y="605" type="line"/>
      <point x="27" y="594" type="line"/>
      <point x="123" y="681" type="line"/>
      <point x="123" y="0" type="line"/>
      <point x="136" y="0" type="line"/>
      <point x="136" y="698" type="line"/>
      <point x="134" y="698" type="line"/>
    </contour>
  </outline>
</glyph>
<glyph name="two" format="1">
  <advance width="287"/>
  <unicode hex="0032"/>
  <outline>
    <contour>
      <point x="249" y="14" type="line"/>
      <point x="39" y="14" type="line"/>
      <point x="76" y="322"/>
      <point x="253" y="300"/>
      <point x="253" y="532" type="curve" smooth="yes"/>
      <point x="253" y="609"/>
      <point x="230" y="705"/>
      <point x="137" y="705" type="curve" smooth="yes"/>
      <point x="67" y="705"/>
      <point x="41" y="648"/>
      <point x="37" y="567" type="curve"/>
      <point x="50" y="565" type="line"/>
      <point x="55" y="643"/>
      <point x="77" y="694"/>
      <point x="138" y="694" type="curve" smooth="yes"/>
      <point x="220" y="694"/>
      <point x="240" y="600"/>
      <point x="240" y="533" type="curve" smooth="yes"/>
      <point x="240" y="309"/>
      <point x="59" y="326"/>
      <point x="29" y="9" type="curve"/>
      <point x="34" y="0" type="line"/>
      <point x="249" y="0" type="line"/>
    </contour>
  </outline>
</glyph>
<glyph name="three" format="1">
  <advance width="287"/>
  <unicode hex="0033"/>
  <outline>
    <contour>
      <point x="108" y="364" type="line"/>
      <point x="204" y="353"/>
      <point x="237" y="278"/>
      <point x="237" y="180" type="curve" smooth="yes"/>
      <point x="237" y="77"/>
      <point x="206" y="-1"/>
      <point x="137" y="-1" type="curve" smooth="yes"/>
      <point x="73" y="-1"/>
      <point x="50" y="63"/>
      <point x="44" y="140" type="curve"/>
      <point x="32" y="136" type="line"/>
      <point x="38" y="52"/>
      <point x="71" y="-12"/>
      <point x="137" y="-12" type="curve" smooth="yes"/>
      <point x="213" y="-12"/>
      <point x="250" y="69"/>
      <point x="250" y="183" type="curve" smooth="yes"/>
      <point x="250" y="295"/>
      <point x="188" y="361"/>
      <point x="136" y="370" type="curve"/>
      <point x="136" y="371" type="line"/>
      <point x="203" y="382"/>
      <point x="236" y="462"/>
      <point x="236" y="540" type="curve" smooth="yes"/>
      <point x="236" y="631"/>
      <point x="204" y="705"/>
      <point x="138" y="705" type="curve" smooth="yes"/>
      <point x="82" y="705"/>
      <point x="46" y="630"/>
      <point x="44" y="569" type="curve"/>
      <point x="57" y="566" type="line"/>
      <point x="60" y="622"/>
      <point x="82" y="694"/>
      <point x="138" y="694" type="curve" smooth="yes"/>
      <point x="196" y="694"/>
      <point x="223" y="621"/>
      <point x="223" y="541" type="curve" smooth="yes"/>
      <point x="223" y="472"/>
      <point x="198" y="388"/>
      <point x="108" y="377" type="curve"/>
    </contour>
  </outline>
</glyph>
<glyph name="four" format="1">
  <advance width="286"/>
  <unicode hex="0034"/>
  <outline>
    <contour>
      <point x="27" y="212" type="line"/>
      <point x="27" y="203" type="line"/>
      <point x="191" y="203" type="line"/>
      <point x="191" y="0" type="line"/>
      <point x="203" y="0" type="line"/>
      <point x="203" y="203" type="line"/>
      <point x="254" y="203" type="line"/>
      <point x="254" y="215" type="line"/>
      <point x="203" y="215" type="line"/>
      <point x="203" y="698" type="line"/>
      <point x="194" y="698" type="line"/>
    </contour>
    <contour>
      <point x="42" y="215" type="line"/>
      <point x="123" y="470" type="line" smooth="yes"/>
      <point x="146" y="535"/>
      <point x="168" y="599"/>
      <point x="190" y="665" type="curve"/>
      <point x="192" y="665" type="line"/>
      <point x="191" y="593"/>
      <point x="191" y="522"/>
      <point x="191" y="449" type="curve" smooth="yes"/>
      <point x="191" y="215" type="line"/>
    </contour>
  </outline>
</glyph>
<glyph name="five" format="1">
  <advance width="287"/>
  <unicode hex="0035"/>
  <outline>
    <contour>
      <point x="48" y="351" type="line"/>
      <point x="57" y="347" type="line"/>
      <point x="75" y="390"/>
      <point x="101" y="428"/>
      <point x="139" y="428" type="curve" smooth="yes"/>
      <point x="200" y="428"/>
      <point x="238" y="339"/>
      <point x="238" y="212" type="curve" smooth="yes"/>
      <point x="238" y="75"/>
      <point x="187" y="-1"/>
      <point x="135" y="-1" type="curve" smooth="yes"/>
      <point x="77" y="-1"/>
      <point x="51" y="70"/>
      <point x="45" y="144" type="curve"/>
      <point x="32" y="140" type="line"/>
      <point x="38" y="63"/>
      <point x="67" y="-12"/>
      <point x="135" y="-12" type="curve" smooth="yes"/>
      <point x="202" y="-12"/>
      <point x="251" y="90"/>
      <point x="251" y="212" type="curve" smooth="yes"/>
      <point x="251" y="344"/>
      <point x="211" y="439"/>
      <point x="138" y="439" type="curve" smooth="yes"/>
      <point x="102" y="439"/>
      <point x="78" y="410"/>
      <point x="64" y="381" type="curve"/>
      <point x="62" y="381" type="line"/>
      <point x="93" y="678" type="line"/>
      <point x="235" y="678" type="line"/>
      <point x="233" y="692" type="line"/>
      <point x="81" y="692" type="line"/>
    </contour>
  </outline>
</glyph>
<glyph name="six" format="1">
  <advance width="287"/>
  <unicode hex="0036"/>
  <outline>
    <contour>
      <point x="40" y="288" type="line"/>
      <point x="40" y="561"/>
      <point x="89" y="694"/>
      <point x="155" y="694" type="curve" smooth="yes"/>
      <point x="204" y="694"/>
      <point x="225" y="641"/>
      <point x="231" y="571" type="curve"/>
      <point x="243" y="574" type="line"/>
      <point x="238" y="650"/>
      <point x="206" y="705"/>
      <point x="154" y="705" type="curve" smooth="yes"/>
      <point x="67" y="705"/>
      <point x="27" y="552"/>
      <point x="27" y="291" type="curve" smooth="yes"/>
      <point x="27" y="137"/>
      <point x="73" y="-12"/>
      <point x="151" y="-12" type="curve" smooth="yes"/>
      <point x="230" y="-12"/>
      <point x="264" y="119"/>
      <point x="264" y="216" type="curve" smooth="yes"/>
      <point x="264" y="353"/>
      <point x="221" y="439"/>
      <point x="147" y="439" type="curve" smooth="yes"/>
      <point x="89" y="439"/>
      <point x="55" y="364"/>
      <point x="41" y="288" type="curve"/>
    </contour>
    <contour>
      <point x="44" y="240" type="line"/>
      <point x="44" y="317"/>
      <point x="81" y="428"/>
      <point x="150" y="428" type="curve" smooth="yes"/>
      <point x="218" y="428"/>
      <point x="251" y="340"/>
      <point x="251" y="215" type="curve" smooth="yes"/>
      <point x="251" y="126"/>
      <point x="232" y="-1"/>
      <point x="151" y="-1" type="curve" smooth="yes"/>
      <point x="70" y="-1"/>
      <point x="44" y="174"/>
      <point x="44" y="239" type="curve"/>
    </contour>
  </outline>
</glyph>
<glyph name="seven" format="1">
  <advance width="291"/>
  <unicode hex="0037"/>
  <outline>
    <contour>
      <point x="253" y="692" type="line"/>
      <point x="33" y="692" type="line"/>
      <point x="33" y="679" type="line"/>
      <point x="239" y="679" type="line"/>
      <point x="239" y="677" type="line"/>
      <point x="95" y="0" type="line"/>
      <point x="111" y="0" type="line"/>
      <point x="253" y="681" type="line"/>
    </contour>
  </outline>
</glyph>
<glyph name="eight" format="1">
  <advance width="287"/>
  <unicode hex="0038"/>
  <outline>
    <contour>
      <point x="122" y="372" type="line"/>
      <point x="89" y="367"/>
      <point x="29" y="300"/>
      <point x="29" y="181" type="curve" smooth="yes"/>
      <point x="29" y="57"/>
      <point x="79" y="-11"/>
      <point x="143" y="-11" type="curve" smooth="yes"/>
      <point x="209" y="-11"/>
      <point x="258" y="61"/>
      <point x="258" y="181" type="curve" smooth="yes"/>
      <point x="258" y="299"/>
      <point x="202" y="365"/>
      <point x="165" y="372" type="curve"/>
      <point x="165" y="373" type="line"/>
      <point x="191" y="381"/>
      <point x="247" y="421"/>
      <point x="247" y="532" type="curve" smooth="yes"/>
      <point x="247" y="631"/>
      <point x="207" y="705"/>
      <point x="143" y="705" type="curve" smooth="yes"/>
      <point x="81" y="705"/>
      <point x="40" y="632"/>
      <point x="40" y="532" type="curve" smooth="yes"/>
      <point x="40" y="425"/>
      <point x="94" y="378"/>
      <point x="122" y="373" type="curve"/>
    </contour>
    <contour>
      <point x="53" y="533" type="line"/>
      <point x="53" y="626"/>
      <point x="91" y="694"/>
      <point x="143" y="694" type="curve" smooth="yes"/>
      <point x="198" y="694"/>
      <point x="234" y="624"/>
      <point x="234" y="533" type="curve" smooth="yes"/>
      <point x="234" y="434"/>
      <point x="189" y="378"/>
      <point x="143" y="378" type="curve" smooth="yes"/>
      <point x="92" y="378"/>
      <point x="53" y="437"/>
      <point x="53" y="532" type="curve"/>
    </contour>
    <contour>
      <point x="41" y="180" type="line"/>
      <point x="41" y="282"/>
      <point x="86" y="367"/>
      <point x="143" y="367" type="curve" smooth="yes"/>
      <point x="198" y="367"/>
      <point x="245" y="282"/>
      <point x="245" y="180" type="curve" smooth="yes"/>
      <point x="245" y="66"/>
      <point x="201" y="0"/>
      <point x="143" y="0" type="curve" smooth="yes"/>
      <point x="88" y="0"/>
      <point x="41" y="64"/>
      <point x="41" y="179" type="curve"/>
    </contour>
  </outline>
</glyph>
<glyph name="nine" format="1">
  <advance width="287"/>
  <unicode hex="0039"/>
  <outline>
    <contour>
      <point x="250" y="405" type="line"/>
      <point x="249" y="157"/>
      <point x="210" y="-1"/>
      <point x="134" y="-1" type="curve" smooth="yes"/>
      <point x="75" y="-1"/>
      <point x="58" y="63"/>
      <point x="50" y="135" type="curve"/>
      <point x="38" y="131" type="line"/>
      <point x="45" y="52"/>
      <point x="73" y="-12"/>
      <point x="134" y="-12" type="curve" smooth="yes"/>
      <point x="235" y="-12"/>
      <point x="261" y="161"/>
      <point x="261" y="401" type="curve" smooth="yes"/>
      <point x="261" y="512"/>
      <point x="221" y="705"/>
      <point x="137" y="705" type="curve" smooth="yes"/>
      <point x="62" y="705"/>
      <point x="25" y="586"/>
      <point x="25" y="483" type="curve" smooth="yes"/>
      <point x="25" y="378"/>
      <point x="49" y="254"/>
      <point x="142" y="254" type="curve" smooth="yes"/>
      <point x="210" y="254"/>
      <point x="240" y="334"/>
      <point x="249" y="405" type="curve"/>
    </contour>
    <contour>
      <point x="245" y="451" type="line"/>
      <point x="245" y="370"/>
      <point x="212" y="265"/>
      <point x="138" y="265" type="curve" smooth="yes"/>
      <point x="66" y="265"/>
      <point x="38" y="363"/>
      <point x="38" y="482" type="curve" smooth="yes"/>
      <point x="38" y="573"/>
      <point x="61" y="694"/>
      <point x="138" y="694" type="curve" smooth="yes"/>
      <point x="209" y="694"/>
      <point x="245" y="529"/>
      <point x="245" y="452" type="curve"/>
    </contour>
  </outline>
</glyph>
<glyph name="colon" format="1">
  <advance width="83"/>
  <unicode hex="003A"/>
  <outline>
    <contour>
      <point x="35" y="487" type="line"/>
      <point x="35" y="410" type="line"/>
      <point x="48" y="410" type="line"/>
      <point x="48" y="487" type="line"/>
    </contour>
    <contour>
      <point x="35" y="77" type="line"/>
      <point x="35" y="0" type="line"/>
      <point x="48" y="0" type="line"/>
      <point x="48" y="77" type="line"/>
    </contour>
  </outline>
</glyph>
<glyph name="semicolon" format="1">
  <advance width="83"/>
  <unicode hex="003B"/>
  <outline>
    <contour>
      <point x="37" y="487" type="line"/>
      <point x="37" y="410" type="line"/>
      <point x="50" y="410" type="line"/>
      <point x="50" y="487" type="line"/>
    </contour>
    <contour>
      <point x="23" y="-77" type="line"/>
      <point x="31" y="-77" type="line"/>
      <point x="58" y="77" type="line"/>
      <point x="41" y="77" type="line"/>
    </contour>
  </outline>
</glyph>
<glyph name="question" format="1">
  <advance width="199"/>
  <unicode hex="003F"/>
  <outline>
    <contour>
      <point x="97" y="152" type="line"/>
      <point x="92" y="258"/>
      <point x="109" y="318"/>
      <point x="145" y="383" type="curve" smooth="yes"/>
      <point x="178" y="439"/>
      <point x="194" y="484"/>
      <point x="194" y="561" type="curve" smooth="yes"/>
      <point x="194" y="668"/>
      <point x="167" y="715"/>
      <point x="102" y="715" type="curve" smooth="yes"/>
      <point x="49" y="715"/>
      <point x="7" y="660"/>
      <point x="1" y="578" type="curve"/>
      <point x="12" y="571" type="line"/>
      <point x="18" y="647"/>
      <point x="48" y="704"/>
      <point x="103" y="704" type="curve" smooth="yes"/>
      <point x="143" y="704"/>
      <point x="182" y="670"/>
      <point x="182" y="564" type="curve" smooth="yes"/>
      <point x="182" y="489"/>
      <point x="169" y="450"/>
      <point x="137" y="398" type="curve" smooth="yes"/>
      <point x="94" y="325"/>
      <point x="85" y="268"/>
      <point x="88" y="152" type="curve"/>
    </contour>
    <contour>
      <point x="88" y="77" type="line"/>
      <point x="88" y="0" type="line"/>
      <point x="100" y="0" type="line"/>
      <point x="100" y="77" type="line"/>
    </contour>
  </outline>
</glyph>
<glyph name="at" format="1">
  <advance width="450"/>
  <unicode hex="0040"/>
  <outline>
    <contour>
      <point x="335" y="83" type="line"/>
      <point x="310" y="47"/>
      <point x="274" y="33"/>
      <point x="217" y="33" type="curve" smooth="yes"/>
      <point x="115" y="33"/>
      <point x="39" y="151"/>
      <point x="39" y="318" type="curve" smooth="yes"/>
      <point x="39" y="434"/>
      <point x="63" y="520"/>
      <point x="103" y="579" type="curve" smooth="yes"/>
      <point x="143" y="637"/>
      <point x="197" y="665"/>
      <point x="261" y="665" type="curve" smooth="yes"/>
      <point x="312" y="665"/>
      <point x="350" y="633"/>
      <point x="377" y="595" type="curve" smooth="yes"/>
      <point x="404" y="550"/>
      <point x="417" y="490"/>
      <point x="417" y="439" type="curve" smooth="yes"/>
      <point x="417" y="360"/>
      <point x="393" y="299"/>
      <point x="367" y="255" type="curve" smooth="yes"/>
      <point x="347" y="219"/>
      <point x="324" y="204"/>
      <point x="305" y="204" type="curve" smooth="yes"/>
      <point x="282" y="204"/>
      <point x="275" y="236"/>
      <point x="287" y="297" type="curve" smooth="yes"/>
      <point x="338" y="526" type="line"/>
      <point x="321" y="526" type="line"/>
      <point x="315" y="485" type="line"/>
      <point x="313" y="485" type="line"/>
      <point x="306" y="514"/>
      <point x="289" y="527"/>
      <point x="267" y="527" type="curve" smooth="yes"/>
      <point x="233" y="527"/>
      <point x="202" y="498"/>
      <point x="171" y="450" type="curve" smooth="yes"/>
      <point x="145" y="406"/>
      <point x="120" y="351"/>
      <point x="120" y="285" type="curve" smooth="yes"/>
      <point x="120" y="218"/>
      <point x="138" y="191"/>
      <point x="172" y="191" type="curve" smooth="yes"/>
      <point x="213" y="191"/>
      <point x="251" y="241"/>
      <point x="270" y="299" type="curve"/>
      <point x="272" y="299" type="line"/>
      <point x="266" y="272"/>
      <point x="262" y="249"/>
      <point x="271" y="226" type="curve" smooth="yes"/>
      <point x="277" y="203"/>
      <point x="288" y="191"/>
      <point x="305" y="191" type="curve" smooth="yes"/>
      <point x="336" y="191"/>
      <point x="365" y="213"/>
      <point x="387" y="247" type="curve" smooth="yes"/>
      <point x="413" y="294"/>
      <point x="431" y="367"/>
      <point x="431" y="439" type="curve" smooth="yes"/>
      <point x="431" y="564"/>
      <point x="367" y="678"/>
      <point x="260" y="678" type="curve" smooth="yes"/>
      <point x="125" y="678"/>
      <point x="24" y="537"/>
      <point x="24" y="318" type="curve" smooth="yes"/>
      <point x="24" y="143"/>
      <point x="111" y="20"/>
      <point x="215" y="20" type="curve" smooth="yes"/>
      <point x="261" y="20"/>
      <point x="307" y="31"/>
      <point x="343" y="74" type="curve"/>
    </contour>
    <contour>
      <point x="136" y="283" type="line"/>
      <point x="136" y="346"/>
      <point x="152" y="393"/>
      <point x="184" y="441" type="curve"/>
      <point x="209" y="486"/>
      <point x="240" y="513"/>
      <point x="266" y="513" type="curve" smooth="yes"/>
      <point x="296" y="513"/>
      <point x="307" y="483"/>
      <point x="307" y="468" type="curve" smooth="yes"/>
      <point x="307" y="455"/>
      <point x="298" y="410"/>
      <point x="287" y="367" type="curve" smooth="yes"/>
      <point x="273" y="293"/>
      <point x="218" y="203"/>
      <point x="171" y="203" type="curve" smooth="yes"/>
      <point x="147" y="203"/>
      <point x="136" y="233"/>
      <point x="136" y="282" type="curve"/>
    </contour>
  </outline>
</glyph>
<glyph name="A" format="1">
  <advance width="239"/>
  <unicode hex="0041"/>
  <outline>
    <contour>
      <point x="182" y="251" type="line"/>
      <point x="227" y="0" type="line"/>
      <point x="242" y="0" type="line"/>
      <point x="127" y="709" type="line"/>
      <point x="111" y="709" type="line"/>
      <point x="4" y="0" type="line"/>
      <point x="19" y="0" type="line"/>
      <point x="57" y="251" type="line"/>
    </contour>
    <contour>
      <point x="179" y="264" type="line"/>
      <point x="60" y="264" type="line"/>
      <point x="91" y="475" type="line" smooth="yes"/>
      <point x="100" y="543"/>
      <point x="109" y="611"/>
      <point x="117" y="684" type="curve"/>
      <point x="120" y="684" type="line"/>
      <point x="129" y="609"/>
      <point x="139" y="542"/>
      <point x="149" y="473" type="curve" smooth="yes"/>
    </contour>
  </outline>
</glyph>
<glyph name="B" format="1">
  <advance width="274"/>
  <unicode hex="0042"/>
  <outline>
    <contour>
      <point x="140" y="376" type="line"/>
      <point x="193" y="388"/>
      <point x="227" y="446"/>
      <point x="227" y="541" type="curve" smooth="yes"/>
      <point x="227" y="642"/>
      <point x="182" y="709"/>
      <point x="89" y="709" type="curve" smooth="yes"/>
      <point x="46" y="709" type="line"/>
      <point x="46" y="0" type="line"/>
      <point x="89" y="0" type="line" smooth="yes"/>
      <point x="182" y="0"/>
      <point x="246" y="28"/>
      <point x="246" y="192" type="curve" smooth="yes"/>
      <point x="246" y="307"/>
      <point x="207" y="365"/>
      <point x="140" y="374" type="curve"/>
    </contour>
    <contour>
      <point x="231" y="192" type="curve" smooth="yes"/>
      <point x="231" y="39"/>
      <point x="172" y="13"/>
      <point x="93" y="13" type="curve" smooth="yes"/>
      <point x="60" y="13" type="line"/>
      <point x="60" y="369" type="line"/>
      <point x="99" y="369" type="line" smooth="yes"/>
      <point x="194" y="369"/>
      <point x="231" y="303"/>
    </contour>
    <contour>
      <point x="212" y="543" type="curve" smooth="yes"/>
      <point x="212" y="457"/>
      <point x="183" y="382"/>
      <point x="97" y="382" type="curve" smooth="yes"/>
      <point x="60" y="382" type="line"/>
      <point x="60" y="696" type="line"/>
      <point x="94" y="696" type="line" smooth="yes"/>
      <point x="172" y="696"/>
      <point x="212" y="636"/>
    </contour>
  </outline>
</glyph>
<glyph name="C" format="1">
  <advance width="287"/>
  <unicode hex="0043"/>
  <outline>
    <contour>
      <point x="246" y="157" type="line"/>
      <point x="239" y="97"/>
      <point x="213" y="-2"/>
      <point x="158" y="-2" type="curve" smooth="yes"/>
      <point x="103" y="-2"/>
      <point x="44" y="96"/>
      <point x="44" y="354" type="curve" smooth="yes"/>
      <point x="44" y="620"/>
      <point x="105" y="711"/>
      <point x="159" y="711" type="curve" smooth="yes"/>
      <point x="204" y="711"/>
      <point x="228" y="648"/>
      <point x="237" y="570" type="curve"/>
      <point x="251" y="577" type="line"/>
      <point x="242" y="660"/>
      <point x="212" y="723"/>
      <point x="160" y="723" type="curve" smooth="yes"/>
      <point x="114" y="723"/>
      <point x="84" y="688"/>
      <point x="62" y="624" type="curve" smooth="yes"/>
      <point x="40" y="560"/>
      <point x="30" y="467"/>
      <point x="30" y="355" type="curve" smooth="yes"/>
      <point x="30" y="238"/>
      <point x="41" y="146"/>
      <point x="61" y="81" type="curve" smooth="yes"/>
      <point x="81" y="25"/>
      <point x="113" y="-14"/>
      <point x="159" y="-14" type="curve" smooth="yes"/>
      <point x="225" y="-14"/>
      <point x="252" y="81"/>
      <point x="260" y="149" type="curve"/>
    </contour>
  </outline>
</glyph>
<glyph name="D" format="1">
  <advance width="283"/>
  <unicode hex="0044"/>
  <outline>
    <contour>
      <point x="253" y="354" type="curve" smooth="yes"/>
      <point x="253" y="588"/>
      <point x="193" y="709"/>
      <point x="97" y="709" type="curve" smooth="yes"/>
      <point x="46" y="709" type="line"/>
      <point x="46" y="0" type="line"/>
      <point x="97" y="0" type="line" smooth="yes"/>
      <point x="202" y="0"/>
      <point x="253" y="126"/>
    </contour>
    <contour>
      <point x="239" y="354" type="curve" smooth="yes"/>
      <point x="239" y="139"/>
      <point x="192" y="13"/>
      <point x="99" y="13" type="curve" smooth="yes"/>
      <point x="60" y="13" type="line"/>
      <point x="60" y="696" type="line"/>
      <point x="100" y="696" type="line" smooth="yes"/>
      <point x="188" y="696"/>
      <point x="239" y="574"/>
    </contour>
  </outline>
</glyph>
<glyph name="E" format="1">
  <advance width="255"/>
  <unicode hex="0045"/>
  <outline>
    <contour>
      <point x="60" y="365" type="line"/>
      <point x="60" y="696" type="line"/>
      <point x="219" y="696" type="line"/>
      <point x="219" y="709" type="line"/>
      <point x="46" y="709" type="line"/>
      <point x="46" y="0" type="line"/>
      <point x="225" y="0" type="line"/>
      <point x="225" y="13" type="line"/>
      <point x="60" y="13" type="line"/>
      <point x="60" y="351" type="line"/>
      <point x="192" y="351" type="line"/>
      <point x="192" y="365" type="line"/>
    </contour>
  </outline>
</glyph>
<glyph name="F" format="1">
  <advance width="247"/>
  <unicode hex="0046"/>
  <outline>
    <contour>
      <point x="60" y="0" type="line"/>
      <point x="60" y="366" type="line"/>
      <point x="191" y="366" type="line"/>
      <point x="191" y="379" type="line"/>
      <point x="60" y="379" type="line"/>
      <point x="60" y="696" type="line"/>
      <point x="220" y="696" type="line"/>
      <point x="220" y="709" type="line"/>
      <point x="46" y="709" type="line"/>
      <point x="46" y="0" type="line"/>
    </contour>
  </outline>
</glyph>
<glyph name="G" format="1">
  <advance width="283"/>
  <unicode hex="0047"/>
  <outline>
    <contour>
      <point x="250" y="306" type="line"/>
      <point x="161" y="306" type="line"/>
      <point x="161" y="293" type="line"/>
      <point x="234" y="293" type="line"/>
      <point x="234" y="62" type="line"/>
      <point x="217" y="20"/>
      <point x="189" y="-2"/>
      <point x="161" y="-2" type="curve" smooth="yes"/>
      <point x="89" y="-2"/>
      <point x="44" y="121"/>
      <point x="44" y="354" type="curve" smooth="yes"/>
      <point x="44" y="619"/>
      <point x="99" y="711"/>
      <point x="157" y="711" type="curve" smooth="yes"/>
      <point x="202" y="711"/>
      <point x="222" y="667"/>
      <point x="235" y="580" type="curve"/>
      <point x="250" y="586" type="line"/>
      <point x="237" y="671"/>
      <point x="212" y="723"/>
      <point x="156" y="723" type="curve" smooth="yes"/>
      <point x="97" y="723"/>
      <point x="30" y="632"/>
      <point x="30" y="354" type="curve" smooth="yes"/>
      <point x="30" y="110"/>
      <point x="80" y="-14"/>
      <point x="158" y="-14" type="curve" smooth="yes"/>
      <point x="200" y="-14"/>
      <point x="228" y="8"/>
      <point x="250" y="57" type="curve"/>
    </contour>
  </outline>
</glyph>
<glyph name="H" format="1">
  <advance width="306"/>
  <unicode hex="0048"/>
  <outline>
    <contour>
      <point x="261" y="709" type="line"/>
      <point x="246" y="709" type="line"/>
      <point x="246" y="380" type="line"/>
      <point x="60" y="380" type="line"/>
      <point x="60" y="709" type="line"/>
      <point x="46" y="709" type="line"/>
      <point x="46" y="0" type="line"/>
      <point x="60" y="0" type="line"/>
      <point x="60" y="366" type="line"/>
      <point x="246" y="366" type="line"/>
      <point x="246" y="0" type="line"/>
      <point x="261" y="0" type="line"/>
    </contour>
  </outline>
</glyph>
<glyph name="I" format="1">
  <advance width="109"/>
  <unicode hex="0049"/>
  <outline>
    <contour>
      <point x="61" y="0" type="line"/>
      <point x="61" y="709" type="line"/>
      <point x="47" y="709" type="line"/>
      <point x="47" y="0" type="line"/>
    </contour>
  </outline>
</glyph>
<glyph name="J" format="1">
  <advance width="191"/>
  <unicode hex="004A"/>
  <outline>
    <contour>
      <point x="10" y="63" type="line"/>
      <point x="23" y="19"/>
      <point x="40" y="-14"/>
      <point x="68" y="-14" type="curve" smooth="yes"/>
      <point x="118" y="-14"/>
      <point x="147" y="81"/>
      <point x="147" y="284" type="curve" smooth="yes"/>
      <point x="147" y="709" type="line"/>
      <point x="132" y="709" type="line"/>
      <point x="132" y="284" type="line" smooth="yes"/>
      <point x="132" y="90"/>
      <point x="110" y="-1"/>
      <point x="68" y="-1" type="curve" smooth="yes"/>
      <point x="46" y="-1"/>
      <point x="30" y="31"/>
      <point x="18" y="72" type="curve"/>
    </contour>
  </outline>
</glyph>
<glyph name="K" format="1">
  <advance width="268"/>
  <unicode hex="004B"/>
  <outline>
    <contour>
      <point x="58" y="287" type="line"/>
      <point x="59" y="359"/>
      <point x="60" y="422"/>
      <point x="60" y="499" type="curve" smooth="yes"/>
      <point x="60" y="709" type="line"/>
      <point x="46" y="709" type="line"/>
      <point x="46" y="0" type="line"/>
      <point x="60" y="0" type="line"/>
      <point x="60" y="265" type="line"/>
      <point x="110" y="403" type="line"/>
      <point x="246" y="0" type="line"/>
      <point x="260" y="0" type="line"/>
      <point x="116" y="414" type="line"/>
      <point x="229" y="709" type="line"/>
      <point x="215" y="709" type="line"/>
      <point x="137" y="497" type="line" smooth="yes"/>
      <point x="104" y="421"/>
      <point x="85" y="359"/>
      <point x="59" y="287" type="curve"/>
    </contour>
  </outline>
</glyph>
<glyph name="L" format="1">
  <advance width="230"/>
  <unicode hex="004C"/>
  <outline>
    <contour>
      <point x="215" y="13" type="line"/>
      <point x="60" y="13" type="line"/>
      <point x="60" y="709" type="line"/>
      <point x="46" y="709" type="line"/>
      <point x="46" y="0" type="line"/>
      <point x="215" y="0" type="line"/>
    </contour>
  </outline>
</glyph>
<glyph name="N" format="1">
  <advance width="940"/>
  <unicode hex="004E"/>
  <outline>
    <contour>
      <point x="470" y="13" type="line"/>
      <point x="414" y="129"/>
      <point x="297" y="364"/>
      <point x="129" y="709" type="curve"/>
      <point x="112" y="709" type="line"/>
      <point x="112" y="0" type="line"/>
      <point x="125" y="0" type="line"/>
      <point x="125" y="343"/>
      <point x="125" y="573"/>
      <point x="122" y="691" type="curve"/>
      <point x="125" y="691" type="line"/>
      <point x="181" y="573"/>
      <point x="293" y="344"/>
      <point x="462" y="0" type="curve"/>
      <point x="479" y="0" type="line"/>
      <point x="648" y="345"/>
      <point x="761" y="573"/>
      <point x="817" y="691" type="curve"/>
      <point x="819" y="691" type="line"/>
      <point x="816" y="573"/>
      <point x="816" y="343"/>
      <point x="816" y="0" type="curve"/>
      <point x="830" y="0" type="line"/>
      <point x="830" y="709" type="line"/>
      <point x="814" y="709" type="line"/>
      <point x="645" y="366"/>
      <point x="528" y="129"/>
      <point x="473" y="13" type="curve"/>
    </contour>
  </outline>
</glyph>
<glyph name="O" format="1">
  <advance width="321"/>
  <unicode hex="004F"/>
  <outline>
    <contour>
      <point x="30" y="354" type="line"/>
      <point x="30" y="98"/>
      <point x="87" y="-14"/>
      <point x="161" y="-14" type="curve" smooth="yes"/>
      <point x="234" y="-14"/>
      <point x="292" y="98"/>
      <point x="292" y="354" type="curve" smooth="yes"/>
      <point x="292" y="611"/>
      <point x="234" y="723"/>
      <point x="161" y="723" type="curve" smooth="yes"/>
      <point x="87" y="723"/>
      <point x="30" y="611"/>
      <point x="30" y="355" type="curve"/>
    </contour>
    <contour>
      <point x="161" y="711" type="line"/>
      <point x="223" y="711"/>
      <point x="277" y="604"/>
      <point x="277" y="354" type="curve" smooth="yes"/>
      <point x="277" y="105"/>
      <point x="223" y="-2"/>
      <point x="161" y="-2" type="curve" smooth="yes"/>
      <point x="99" y="-2"/>
      <point x="44" y="105"/>
      <point x="44" y="354" type="curve" smooth="yes"/>
      <point x="44" y="604"/>
      <point x="99" y="711"/>
      <point x="160" y="711" type="curve"/>
    </contour>
  </outline>
</glyph>
<glyph name="P" format="1">
  <advance width="271"/>
  <unicode hex="0050"/>
  <outline>
    <contour>
      <point x="60" y="0" type="line"/>
      <point x="60" y="304" type="line"/>
      <point x="93" y="304" type="line"/>
      <point x="193" y="304"/>
      <point x="247" y="377"/>
      <point x="247" y="508" type="curve" smooth="yes"/>
      <point x="247" y="632"/>
      <point x="205" y="709"/>
      <point x="105" y="709" type="curve" smooth="yes"/>
      <point x="46" y="709" type="line"/>
      <point x="46" y="0" type="line"/>
    </contour>
    <contour>
      <point x="60" y="318" type="line"/>
      <point x="60" y="696" type="line"/>
      <point x="108" y="696" type="line" smooth="yes"/>
      <point x="196" y="696"/>
      <point x="232" y="618"/>
      <point x="232" y="509" type="curve" smooth="yes"/>
      <point x="232" y="388"/>
      <point x="184" y="318"/>
      <point x="98" y="318" type="curve" smooth="yes"/>
    </contour>
  </outline>
</glyph>
<glyph name="Q" format="1">
  <advance width="321"/>
  <unicode hex="0051"/>
  <outline>
    <contour>
      <point x="238" y="43" type="line"/>
      <point x="272" y="102"/>
      <point x="292" y="203"/>
      <point x="292" y="354" type="curve" smooth="yes"/>
      <point x="292" y="611"/>
      <point x="234" y="723"/>
      <point x="161" y="723" type="curve" smooth="yes"/>
      <point x="87" y="723"/>
      <point x="30" y="611"/>
      <point x="30" y="354" type="curve" smooth="yes"/>
      <point x="30" y="98"/>
      <point x="87" y="-14"/>
      <point x="161" y="-14" type="curve" smooth="yes"/>
      <point x="187" y="-14"/>
      <point x="212" y="2"/>
      <point x="232" y="33" type="curve"/>
      <point x="300" y="-95" type="line"/>
      <point x="311" y="-87" type="line"/>
    </contour>
    <contour>
      <point x="161" y="711" type="line"/>
      <point x="223" y="711"/>
      <point x="277" y="604"/>
      <point x="277" y="354" type="curve" smooth="yes"/>
      <point x="277" y="105"/>
      <point x="223" y="-2"/>
      <point x="161" y="-2" type="curve" smooth="yes"/>
      <point x="99" y="-2"/>
      <point x="44" y="105"/>
      <point x="44" y="354" type="curve" smooth="yes"/>
      <point x="44" y="604"/>
      <point x="99" y="711"/>
      <point x="160" y="711" type="curve"/>
    </contour>
  </outline>
</glyph>
<glyph name="R" format="1">
  <advance width="272"/>
  <unicode hex="0052"/>
  <outline>
    <contour>
      <point x="275" y="0" type="line"/>
      <point x="260" y="0" type="line"/>
      <point x="113" y="319" type="line"/>
      <point x="60" y="319" type="line"/>
      <point x="60" y="0" type="line"/>
      <point x="46" y="0" type="line"/>
      <point x="46" y="709" type="line"/>
      <point x="104" y="709" type="line" smooth="yes"/>
      <point x="198" y="709"/>
      <point x="243" y="637"/>
      <point x="243" y="518" type="curve" smooth="yes"/>
      <point x="243" y="396"/>
      <point x="186" y="324"/>
      <point x="129" y="319" type="curve"/>
    </contour>
    <contour>
      <point x="57" y="332" type="line" smooth="yes"/>
      <point x="92" y="332"/>
      <point x="175" y="339"/>
      <point x="175" y="365" type="curve" smooth="yes"/>
      <point x="210" y="391"/>
      <point x="205" y="472"/>
      <point x="173" y="552" type="curve" smooth="yes"/>
      <point x="173" y="626"/>
      <point x="158" y="696"/>
      <point x="102" y="696" type="curve"/>
      <point x="60" y="629" type="line"/>
    </contour>
  </outline>
</glyph>
<glyph name="S" format="1">
  <advance width="274"/>
  <unicode hex="0053"/>
  <outline>
    <contour>
      <point x="235" y="621" type="line"/>
      <point x="228" y="678"/>
      <point x="204" y="723"/>
      <point x="140" y="723" type="curve" smooth="yes"/>
      <point x="95" y="723"/>
      <point x="70" y="707"/>
      <point x="53" y="678" type="curve" smooth="yes"/>
      <point x="38" y="650"/>
      <point x="32" y="606"/>
      <point x="32" y="566" type="curve" smooth="yes"/>
      <point x="32" y="509"/>
      <point x="44" y="472"/>
      <point x="59" y="451" type="curve" smooth="yes"/>
      <point x="72" y="431"/>
      <point x="86" y="417"/>
      <point x="135" y="379" type="curve" smooth="yes"/>
      <point x="187" y="339"/>
      <point x="200" y="325"/>
      <point x="212" y="304" type="curve" smooth="yes"/>
      <point x="224" y="282"/>
      <point x="235" y="246"/>
      <point x="235" y="184" type="curve" smooth="yes"/>
      <point x="235" y="136"/>
      <point x="228" y="92"/>
      <point x="214" y="62" type="curve" smooth="yes"/>
      <point x="199" y="26"/>
      <point x="174" y="-2"/>
      <point x="132" y="-2" type="curve" smooth="yes"/>
      <point x="68" y="-2"/>
      <point x="49" y="49"/>
      <point x="40" y="102" type="curve"/>
      <point x="26" y="91" type="line"/>
      <point x="36" y="31"/>
      <point x="62" y="-14"/>
      <point x="132" y="-14" type="curve" smooth="yes"/>
      <point x="190" y="-14"/>
      <point x="213" y="16"/>
      <point x="228" y="51" type="curve" smooth="yes"/>
      <point x="243" y="86"/>
      <point x="250" y="134"/>
      <point x="250" y="185" type="curve" smooth="yes"/>
      <point x="250" y="244"/>
      <point x="239" y="284"/>
      <point x="225" y="309" type="curve" smooth="yes"/>
      <point x="214" y="337"/>
      <point x="196" y="352"/>
      <point x="151" y="387" type="curve" smooth="yes"/>
      <point x="105" y="422"/>
      <point x="84" y="438"/>
      <point x="70" y="459" type="curve" smooth="yes"/>
      <point x="57" y="480"/>
      <point x="48" y="517"/>
      <point x="48" y="563" type="curve" smooth="yes"/>
      <point x="48" y="609"/>
      <point x="53" y="643"/>
      <point x="67" y="668" type="curve" smooth="yes"/>
      <point x="80" y="695"/>
      <point x="106" y="711"/>
      <point x="139" y="711" type="curve" smooth="yes"/>
      <point x="200" y="711"/>
      <point x="214" y="664"/>
      <point x="220" y="613" type="curve"/>
    </contour>
  </outline>
</glyph>
<glyph name="T" format="1">
  <advance width="265"/>
  <unicode hex="0054"/>
  <outline>
    <contour>
      <point x="251" y="709" type="line"/>
      <point x="14" y="709" type="line"/>
      <point x="14" y="696" type="line"/>
      <point x="125" y="696" type="line"/>
      <point x="125" y="0" type="line"/>
      <point x="140" y="0" type="line"/>
      <point x="140" y="696" type="line"/>
      <point x="251" y="696" type="line"/>
    </contour>
  </outline>
</glyph>
<glyph name="U" format="1">
  <advance width="297"/>
  <unicode hex="0055"/>
  <outline>
    <contour>
      <point x="254" y="709" type="line"/>
      <point x="240" y="709" type="line"/>
      <point x="240" y="260" type="line" smooth="yes"/>
      <point x="240" y="79"/>
      <point x="229" y="-2"/>
      <point x="147" y="-2" type="curve" smooth="yes"/>
      <point x="69" y="-2"/>
      <point x="57" y="79"/>
      <point x="57" y="260" type="curve" smooth="yes"/>
      <point x="57" y="709" type="line"/>
      <point x="43" y="709" type="line"/>
      <point x="43" y="257" type="line" smooth="yes"/>
      <point x="43" y="54"/>
      <point x="66" y="-14"/>
      <point x="147" y="-14" type="curve" smooth="yes"/>
      <point x="233" y="-14"/>
      <point x="254" y="54"/>
      <point x="254" y="257" type="curve" smooth="yes"/>
    </contour>
  </outline>
</glyph>
<glyph name="V" format="1">
  <advance width="251"/>
  <unicode hex="0056"/>
  <outline>
    <contour>
      <point x="126" y="16" type="line"/>
      <point x="109" y="140"/>
      <point x="91" y="252"/>
      <point x="74" y="368" type="curve" smooth="yes"/>
      <point x="21" y="709" type="line"/>
      <point x="7" y="709" type="line"/>
      <point x="117" y="0" type="line"/>
      <point x="136" y="0" type="line"/>
      <point x="245" y="709" type="line"/>
      <point x="231" y="709" type="line"/>
      <point x="179" y="369" type="line" smooth="yes"/>
      <point x="161" y="253"/>
      <point x="143" y="142"/>
      <point x="128" y="16" type="curve"/>
    </contour>
  </outline>
</glyph>
<glyph name="W" format="1">
  <advance width="365"/>
  <unicode hex="0057"/>
  <outline>
    <contour>
      <point x="184" y="693" type="line"/>
      <point x="195" y="575"/>
      <point x="206" y="461"/>
      <point x="219" y="345" type="curve" smooth="yes"/>
      <point x="257" y="0" type="line"/>
      <point x="276" y="0" type="line"/>
      <point x="359" y="709" type="line"/>
      <point x="346" y="709" type="line"/>
      <point x="306" y="363" type="line" smooth="yes"/>
      <point x="293" y="249"/>
      <point x="279" y="136"/>
      <point x="268" y="14" type="curve"/>
      <point x="266" y="14" type="line"/>
      <point x="255" y="134"/>
      <point x="243" y="249"/>
      <point x="231" y="363" type="curve" smooth="yes"/>
      <point x="192" y="709" type="line"/>
      <point x="175" y="709" type="line"/>
      <point x="138" y="363" type="line" smooth="yes"/>
      <point x="126" y="250"/>
      <point x="112" y="135"/>
      <point x="104" y="14" type="curve"/>
      <point x="102" y="14" type="line"/>
      <point x="90" y="135"/>
      <point x="75" y="249"/>
      <point x="62" y="363" type="curve" smooth="yes"/>
      <point x="21" y="709" type="line"/>
      <point x="7" y="709" type="line"/>
      <point x="93" y="0" type="line"/>
      <point x="112" y="0" type="line"/>
      <point x="147" y="345" type="line" smooth="yes"/>
      <point x="159" y="460"/>
      <point x="172" y="575"/>
      <point x="182" y="693" type="curve"/>
    </contour>
  </outline>
</glyph>
<glyph name="X" format="1">
  <advance width="267"/>
  <unicode hex="0058"/>
  <outline>
    <contour>
      <point x="134" y="384" type="line"/>
      <point x="133" y="384" type="line"/>
      <point x="34" y="709" type="line"/>
      <point x="21" y="709" type="line"/>
      <point x="127" y="368" type="line"/>
      <point x="14" y="0" type="line"/>
      <point x="27" y="0" type="line"/>
      <point x="133" y="352" type="line"/>
      <point x="134" y="352" type="line"/>
      <point x="240" y="0" type="line"/>
      <point x="252" y="0" type="line"/>
      <point x="139" y="368" type="line"/>
      <point x="246" y="709" type="line"/>
      <point x="232" y="709" type="line"/>
    </contour>
  </outline>
</glyph>
<glyph name="Y" format="1">
  <advance width="230"/>
  <unicode hex="0059"/>
  <outline>
    <contour>
      <point x="224" y="709" type="line"/>
      <point x="211" y="709" type="line"/>
      <point x="164" y="518" type="line" smooth="yes"/>
      <point x="147" y="453"/>
      <point x="131" y="390"/>
      <point x="118" y="324" type="curve"/>
      <point x="116" y="324" type="line"/>
      <point x="100" y="389"/>
      <point x="84" y="452"/>
      <point x="68" y="516" type="curve" smooth="yes"/>
      <point x="19" y="709" type="line"/>
      <point x="6" y="709" type="line"/>
      <point x="109" y="308" type="line"/>
      <point x="109" y="0" type="line"/>
      <point x="123" y="0" type="line"/>
      <point x="123" y="308" type="line"/>
    </contour>
  </outline>
</glyph>
<glyph name="Z" format="1">
  <advance width="233"/>
  <unicode hex="005A"/>
  <outline>
    <contour>
      <point x="21" y="0" type="line"/>
      <point x="213" y="0" type="line"/>
      <point x="213" y="13" type="line"/>
      <point x="35" y="13" type="line"/>
      <point x="207" y="694" type="line"/>
      <point x="207" y="709" type="line"/>
      <point x="34" y="709" type="line"/>
      <point x="34" y="696" type="line"/>
      <point x="194" y="696" type="line"/>
      <point x="21" y="15" type="line"/>
    </contour>
  </outline>
</glyph>
<glyph name="backslash" format="1">
  <advance width="247"/>
  <unicode hex="005C"/>
  <outline>
    <contour>
      <point x="17" y="739" type="line"/>
      <point x="218" y="-12" type="line"/>
      <point x="233" y="-12" type="line"/>
      <point x="32" y="739" type="line"/>
    </contour>
  </outline>
</glyph>
<glyph name="bracketright" format="1">
  <advance width="142"/>
  <unicode hex="005D"/>
  <outline>
    <contour>
      <point x="10" y="-156" type="line"/>
      <point x="83" y="-156" type="line"/>
      <point x="83" y="739" type="line"/>
      <point x="10" y="739" type="line"/>
      <point x="10" y="727" type="line"/>
      <point x="70" y="727" type="line"/>
      <point x="70" y="-144" type="line"/>
      <point x="10" y="-144" type="line"/>
    </contour>
  </outline>
</glyph>
<glyph name="underscore" format="1">
  <advance width="321"/>
  <unicode hex="005F"/>
  <outline>
    <contour>
      <point x="321" y="-125" type="line"/>
      <point x="321" y="-75" type="line"/>
      <point x="0" y="-75" type="line"/>
      <point x="0" y="-125" type="line"/>
    </contour>
  </outline>
</glyph>
<glyph name="c" format="1">
  <advance width="234"/>
  <unicode hex="0063"/>
  <outline>
    <contour>
      <point x="206" y="449" type="line"/>
      <point x="199" y="507"/>
      <point x="177" y="544"/>
      <point x="134" y="544" type="curve" smooth="yes"/>
      <point x="72" y="544"/>
      <point x="27" y="460"/>
      <point x="27" y="266" type="curve" smooth="yes"/>
      <point x="27" y="64"/>
      <point x="71" y="-12"/>
      <point x="130" y="-12" type="curve" smooth="yes"/>
      <point x="173" y="-12"/>
      <point x="204" y="41"/>
      <point x="210" y="104" type="curve"/>
      <point x="198" y="110" type="line"/>
      <point x="192" y="48"/>
      <point x="169" y="0"/>
      <point x="131" y="0" type="curve" smooth="yes"/>
      <point x="81" y="0"/>
      <point x="40" y="70"/>
      <point x="40" y="266" type="curve" smooth="yes"/>
      <point x="40" y="447"/>
      <point x="83" y="532"/>
      <point x="133" y="532" type="curve" smooth="yes"/>
      <point x="172" y="532"/>
      <point x="187" y="496"/>
      <point x="195" y="442" type="curve"/>
    </contour>
  </outline>
</glyph>
<glyph name="d" format="1">
  <advance width="257"/>
  <unicode hex="0064"/>
  <outline>
    <contour>
      <point x="207" y="76" type="line"/>
      <point x="205" y="0" type="line"/>
      <point x="218" y="0" type="line"/>
      <point x="218" y="727" type="line"/>
      <point x="205" y="727" type="line"/>
      <point x="205" y="456" type="line"/>
      <point x="204" y="456" type="line"/>
      <point x="187" y="514"/>
      <point x="166" y="544"/>
      <point x="129" y="544" type="curve" smooth="yes"/>
      <point x="67" y="544"/>
      <point x="27" y="435"/>
      <point x="27" y="266" type="curve" smooth="yes"/>
      <point x="27" y="108"/>
      <point x="68" y="-12"/>
      <point x="129" y="-12" type="curve" smooth="yes"/>
      <point x="177" y="-12"/>
      <point x="196" y="58"/>
      <point x="205" y="76" type="curve"/>
    </contour>
    <contour>
      <point x="126" y="0" type="line"/>
      <point x="74" y="0"/>
      <point x="39" y="117"/>
      <point x="40" y="266" type="curve" smooth="yes"/>
      <point x="41" y="421"/>
      <point x="74" y="532"/>
      <point x="126" y="532" type="curve" smooth="yes"/>
      <point x="160" y="532"/>
      <point x="186" y="500"/>
      <point x="205" y="431" type="curve"/>
      <point x="205" y="105" type="line"/>
      <point x="193" y="66"/>
      <point x="168" y="0"/>
      <point x="127" y="0" type="curve"/>
    </contour>
  </outline>
</glyph>
<glyph name="e" format="1">
  <advance width="241"/>
  <unicode hex="0065"/>
  <outline>
    <contour>
      <point x="216" y="271" type="line"/>
      <point x="216" y="356"/>
      <point x="203" y="424"/>
      <point x="184" y="469" type="curve" smooth="yes"/>
      <point x="169" y="518"/>
      <point x="149" y="544"/>
      <point x="124" y="544" type="curve" smooth="yes"/>
      <point x="99" y="544"/>
      <point x="77" y="520"/>
      <point x="58" y="478" type="curve" smooth="yes"/>
      <point x="38" y="433"/>
      <point x="27" y="364"/>
      <point x="27" y="273" type="curve" smooth="yes"/>
      <point x="27" y="172"/>
      <point x="37" y="103"/>
      <point x="55" y="59" type="curve" smooth="yes"/>
      <point x="73" y="9"/>
      <point x="100" y="-12"/>
      <point x="128" y="-12" type="curve" smooth="yes"/>
      <point x="158" y="-12"/>
      <point x="178" y="8"/>
      <point x="191" y="34" type="curve" smooth="yes"/>
      <point x="205" y="60"/>
      <point x="213" y="91"/>
      <point x="216" y="116" type="curve"/>
      <point x="205" y="124" type="line"/>
      <point x="192" y="43"/>
      <point x="168" y="1"/>
      <point x="129" y="1" type="curve" smooth="yes"/>
      <point x="83" y="1"/>
      <point x="40" y="65"/>
      <point x="40" y="271" type="curve"/>
    </contour>
    <contour>
      <point x="40" y="286" type="line"/>
      <point x="40" y="438"/>
      <point x="88" y="531"/>
      <point x="124" y="531" type="curve" smooth="yes"/>
      <point x="164" y="531"/>
      <point x="202" y="422"/>
      <point x="203" y="286" type="curve"/>
    </contour>
  </outline>
</glyph>
<glyph name="f" format="1">
  <advance width="154"/>
  <unicode hex="0066"/>
  <outline>
    <contour>
      <point x="177" y="682" type="line"/>
      <point x="170" y="699"/>
      <point x="164" y="709"/>
      <point x="157" y="717" type="curve" smooth="yes"/>
      <point x="148" y="730"/>
      <point x="137" y="734"/>
      <point x="126" y="734" type="curve" smooth="yes"/>
      <point x="105" y="734"/>
      <point x="88" y="723"/>
      <point x="76" y="703" type="curve" smooth="yes"/>
      <point x="55" y="673"/>
      <point x="49" y="623"/>
      <point x="49" y="560" type="curve" smooth="yes"/>
      <point x="49" y="532" type="line"/>
      <point x="8" y="532" type="line"/>
      <point x="8" y="519" type="line"/>
      <point x="49" y="519" type="line"/>
      <point x="49" y="0" type="line"/>
      <point x="62" y="0" type="line"/>
      <point x="62" y="519" type="line"/>
      <point x="143" y="519" type="line"/>
      <point x="143" y="532" type="line"/>
      <point x="62" y="532" type="line"/>
      <point x="62" y="560" type="line" smooth="yes"/>
      <point x="62" y="626"/>
      <point x="69" y="670"/>
      <point x="86" y="694" type="curve" smooth="yes"/>
      <point x="97" y="715"/>
      <point x="110" y="722"/>
      <point x="126" y="722" type="curve" smooth="yes"/>
      <point x="137" y="722"/>
      <point x="147" y="716"/>
      <point x="156" y="705" type="curve" smooth="yes"/>
      <point x="164" y="695"/>
      <point x="169" y="684"/>
      <point x="173" y="670" type="curve"/>
    </contour>
  </outline>
</glyph>
<glyph name="g" format="1">
  <advance width="256"/>
  <unicode hex="0067"/>
  <outline>
    <contour>
      <point x="207" y="462" type="line"/>
      <point x="205" y="462" type="line"/>
      <point x="189" y="517"/>
      <point x="167" y="544"/>
      <point x="137" y="544" type="curve" smooth="yes"/>
      <point x="73" y="544"/>
      <point x="27" y="396"/>
      <point x="27" y="261" type="curve" smooth="yes"/>
      <point x="27" y="75"/>
      <point x="72" y="-12"/>
      <point x="133" y="-12" type="curve" smooth="yes"/>
      <point x="170" y="-12"/>
      <point x="191" y="34"/>
      <point x="204" y="71" type="curve"/>
      <point x="206" y="71" type="line"/>
      <point x="206" y="12" type="line" smooth="yes"/>
      <point x="206" y="-86"/>
      <point x="199" y="-140"/>
      <point x="183" y="-183" type="curve" smooth="yes"/>
      <point x="168" y="-231"/>
      <point x="144" y="-249"/>
      <point x="124" y="-249" type="curve" smooth="yes"/>
      <point x="109" y="-249"/>
      <point x="90" y="-240"/>
      <point x="77" y="-223" type="curve" smooth="yes"/>
      <point x="65" y="-203"/>
      <point x="57" y="-178"/>
      <point x="52" y="-152" type="curve"/>
      <point x="41" y="-162" type="line"/>
      <point x="47" y="-195"/>
      <point x="57" y="-219"/>
      <point x="68" y="-233" type="curve" smooth="yes"/>
      <point x="82" y="-252"/>
      <point x="100" y="-261"/>
      <point x="123" y="-261" type="curve" smooth="yes"/>
      <point x="151" y="-261"/>
      <point x="178" y="-236"/>
      <point x="193" y="-192" type="curve" smooth="yes"/>
      <point x="211" y="-143"/>
      <point x="218" y="-84"/>
      <point x="218" y="10" type="curve" smooth="yes"/>
      <point x="218" y="532" type="line"/>
      <point x="206" y="532" type="line"/>
    </contour>
    <contour>
      <point x="40" y="265" type="line"/>
      <point x="40" y="383"/>
      <point x="81" y="532"/>
      <point x="135" y="532" type="curve" smooth="yes"/>
      <point x="166" y="532"/>
      <point x="189" y="495"/>
      <point x="206" y="438" type="curve"/>
      <point x="206" y="94" type="line"/>
      <point x="194" y="49"/>
      <point x="171" y="0"/>
      <point x="132" y="0" type="curve" smooth="yes"/>
      <point x="76" y="0"/>
      <point x="40" y="94"/>
      <point x="40" y="264" type="curve"/>
    </contour>
  </outline>
</glyph>
<glyph name="h" format="1">
  <advance width="253"/>
  <unicode hex="0068"/>
  <outline>
    <contour>
      <point x="216" y="0" type="line"/>
      <point x="216" y="390" type="line" smooth="yes"/>
      <point x="216" y="443"/>
      <point x="209" y="476"/>
      <point x="198" y="502" type="curve" smooth="yes"/>
      <point x="185" y="529"/>
      <point x="163" y="544"/>
      <point x="146" y="544" type="curve" smooth="yes"/>
      <point x="126" y="544"/>
      <point x="108" y="535"/>
      <point x="93" y="517" type="curve" smooth="yes"/>
      <point x="77" y="500"/>
      <point x="64" y="474"/>
      <point x="53" y="443" type="curve"/>
      <point x="52" y="443" type="line"/>
      <point x="52" y="727" type="line"/>
      <point x="39" y="727" type="line"/>
      <point x="39" y="0" type="line"/>
      <point x="52" y="0" type="line"/>
      <point x="52" y="424" type="line"/>
      <point x="67" y="454"/>
      <point x="87" y="492"/>
      <point x="103" y="508" type="curve" smooth="yes"/>
      <point x="119" y="525"/>
      <point x="134" y="533"/>
      <point x="148" y="533" type="curve" smooth="yes"/>
      <point x="169" y="533"/>
      <point x="181" y="517"/>
      <point x="189" y="495" type="curve" smooth="yes"/>
      <point x="202" y="467"/>
      <point x="203" y="427"/>
      <point x="203" y="387" type="curve" smooth="yes"/>
      <point x="203" y="0" type="line"/>
    </contour>
  </outline>
</glyph>
<glyph name="j" format="1">
  <advance width="95"/>
  <unicode hex="006A"/>
  <outline>
    <contour>
      <point x="54" y="648" type="line"/>
      <point x="54" y="727" type="line"/>
      <point x="41" y="727" type="line"/>
      <point x="41" y="648" type="line"/>
    </contour>
    <contour>
      <point x="-71" y="-199" type="line"/>
      <point x="-63" y="-217"/>
      <point x="-55" y="-230"/>
      <point x="-47" y="-239" type="curve" smooth="yes"/>
      <point x="-40" y="-249"/>
      <point x="-31" y="-255"/>
      <point x="-19" y="-255" type="curve" smooth="yes"/>
      <point x="6" y="-255"/>
      <point x="25" y="-234"/>
      <point x="37" y="-197" type="curve" smooth="yes"/>
      <point x="50" y="-167"/>
      <point x="54" y="-128"/>
      <point x="54" y="-56" type="curve" smooth="yes"/>
      <point x="54" y="532" type="line"/>
      <point x="41" y="532" type="line"/>
      <point x="41" y="-57" type="line" smooth="yes"/>
      <point x="41" y="-125"/>
      <point x="37" y="-161"/>
      <point x="26" y="-190" type="curve" smooth="yes"/>
      <point x="15" y="-233"/>
      <point x="-2" y="-243"/>
      <point x="-17" y="-243" type="curve" smooth="yes"/>
      <point x="-30" y="-243"/>
      <point x="-38" y="-233"/>
      <point x="-43" y="-226" type="curve" smooth="yes"/>
      <point x="-51" y="-216"/>
      <point x="-57" y="-204"/>
      <point x="-63" y="-187" type="curve"/>
    </contour>
  </outline>
</glyph>
<glyph name="k" format="1">
  <advance width="203"/>
  <unicode hex="006B"/>
  <outline>
    <contour>
      <point x="88" y="317" type="line"/>
      <point x="178" y="532" type="line"/>
      <point x="162" y="532" type="line"/>
      <point x="108" y="391" type="line" smooth="yes"/>
      <point x="90" y="344"/>
      <point x="70" y="296"/>
      <point x="52" y="248" type="curve"/>
      <point x="50" y="248" type="line"/>
      <point x="51" y="295"/>
      <point x="52" y="342"/>
      <point x="52" y="391" type="curve" smooth="yes"/>
      <point x="52" y="727" type="line"/>
      <point x="39" y="727" type="line"/>
      <point x="39" y="0" type="line"/>
      <point x="52" y="0" type="line"/>
      <point x="52" y="228" type="line"/>
      <point x="81" y="305" type="line"/>
      <point x="189" y="0" type="line"/>
      <point x="202" y="0" type="line"/>
    </contour>
  </outline>
</glyph>
<glyph name="m" format="1">
  <advance width="367"/>
  <unicode hex="006D"/>
  <outline>
    <contour>
      <point x="329" y="0" type="line"/>
      <point x="329" y="410" type="line" smooth="yes"/>
      <point x="329" y="449"/>
      <point x="326" y="482"/>
      <point x="314" y="506" type="curve" smooth="yes"/>
      <point x="303" y="529"/>
      <point x="290" y="544"/>
      <point x="269" y="544" type="curve" smooth="yes"/>
      <point x="255" y="544"/>
      <point x="241" y="537"/>
      <point x="228" y="522" type="curve" smooth="yes"/>
      <point x="215" y="508"/>
      <point x="202" y="481"/>
      <point x="188" y="446" type="curve"/>
      <point x="186" y="446" type="line"/>
      <point x="186" y="463"/>
      <point x="181" y="495"/>
      <point x="172" y="513" type="curve" smooth="yes"/>
      <point x="162" y="532"/>
      <point x="149" y="544"/>
      <point x="130" y="544" type="curve" smooth="yes"/>
      <point x="118" y="544"/>
      <point x="105" y="538"/>
      <point x="93" y="523" type="curve" smooth="yes"/>
      <point x="79" y="508"/>
      <point x="67" y="483"/>
      <point x="52" y="445" type="curve"/>
      <point x="50" y="445" type="line"/>
      <point x="52" y="532" type="line"/>
      <point x="39" y="532" type="line"/>
      <point x="39" y="0" type="line"/>
      <point x="52" y="0" type="line"/>
      <point x="52" y="426" type="line"/>
      <point x="68" y="463"/>
      <point x="83" y="490"/>
      <point x="96" y="508" type="curve" smooth="yes"/>
      <point x="109" y="525"/>
      <point x="121" y="533"/>
      <point x="133" y="533" type="curve" smooth="yes"/>
      <point x="147" y="533"/>
      <point x="157" y="523"/>
      <point x="165" y="504" type="curve" smooth="yes"/>
      <point x="175" y="482"/>
      <point x="178" y="453"/>
      <point x="178" y="416" type="curve" smooth="yes"/>
      <point x="178" y="0" type="line"/>
      <point x="191" y="0" type="line"/>
      <point x="191" y="428" type="line"/>
      <point x="206" y="467"/>
      <point x="220" y="492"/>
      <point x="233" y="509" type="curve" smooth="yes"/>
      <point x="245" y="525"/>
      <point x="258" y="533"/>
      <point x="270" y="533" type="curve" smooth="yes"/>
      <point x="287" y="533"/>
      <point x="297" y="519"/>
      <point x="304" y="499" type="curve" smooth="yes"/>
      <point x="316" y="472"/>
      <point x="317" y="435"/>
      <point x="317" y="405" type="curve" smooth="yes"/>
      <point x="317" y="0" type="line"/>
    </contour>
  </outline>
</glyph>
<glyph name="o" format="1">
  <advance width="259"/>
  <unicode hex="006F"/>
  <outline>
    <contour>
      <point x="232" y="266" type="line"/>
      <point x="232" y="456"/>
      <point x="182" y="544"/>
      <point x="129" y="544" type="curve" smooth="yes"/>
      <point x="77" y="544"/>
      <point x="27" y="456"/>
      <point x="27" y="266" type="curve" smooth="yes"/>
      <point x="27" y="100"/>
      <point x="66" y="-12"/>
      <point x="129" y="-12" type="curve" smooth="yes"/>
      <point x="197" y="-12"/>
      <point x="232" y="110"/>
      <point x="232" y="265" type="curve"/>
    </contour>
    <contour>
      <point x="129" y="0" type="line"/>
      <point x="78" y="0"/>
      <point x="40" y="110"/>
      <point x="40" y="266" type="curve" smooth="yes"/>
      <point x="40" y="445"/>
      <point x="84" y="532"/>
      <point x="129" y="532" type="curve" smooth="yes"/>
      <point x="175" y="532"/>
      <point x="219" y="445"/>
      <point x="219" y="266" type="curve" smooth="yes"/>
      <point x="219" y="113"/>
      <point x="184" y="0"/>
      <point x="130" y="0" type="curve"/>
    </contour>
  </outline>
</glyph>
<glyph name="p" format="1">
  <advance width="257"/>
  <unicode hex="0070"/>
  <outline>
    <contour>
      <point x="39" y="-248" type="line"/>
      <point x="52" y="-248" type="line"/>
      <point x="52" y="73" type="line"/>
      <point x="53" y="73" type="line"/>
      <point x="62" y="48"/>
      <point x="73" y="24"/>
      <point x="85" y="10" type="curve" smooth="yes"/>
      <point x="101" y="-10"/>
      <point x="118" y="-12"/>
      <point x="128" y="-12" type="curve" smooth="yes"/>
      <point x="159" y="-12"/>
      <point x="182" y="19"/>
      <point x="198" y="64" type="curve" smooth="yes"/>
      <point x="216" y="116"/>
      <point x="229" y="186"/>
      <point x="229" y="267" type="curve" smooth="yes"/>
      <point x="229" y="354"/>
      <point x="219" y="419"/>
      <point x="202" y="465" type="curve" smooth="yes"/>
      <point x="184" y="519"/>
      <point x="158" y="544"/>
      <point x="127" y="544" type="curve" smooth="yes"/>
      <point x="109" y="544"/>
      <point x="96" y="535"/>
      <point x="84" y="520" type="curve" smooth="yes"/>
      <point x="69" y="501"/>
      <point x="58" y="477"/>
      <point x="52" y="455" type="curve"/>
      <point x="50" y="455" type="line"/>
      <point x="52" y="532" type="line"/>
      <point x="39" y="532" type="line"/>
    </contour>
    <contour>
      <point x="52" y="431" type="line"/>
      <point x="64" y="466"/>
      <point x="78" y="492"/>
      <point x="91" y="509" type="curve" smooth="yes"/>
      <point x="105" y="527"/>
      <point x="116" y="532"/>
      <point x="130" y="532" type="curve" smooth="yes"/>
      <point x="157" y="532"/>
      <point x="177" y="503"/>
      <point x="192" y="457" type="curve" smooth="yes"/>
      <point x="208" y="410"/>
      <point x="217" y="342"/>
      <point x="217" y="267" type="curve" smooth="yes"/>
      <point x="217" y="175"/>
      <point x="203" y="112"/>
      <point x="188" y="72" type="curve" smooth="yes"/>
      <point x="172" y="20"/>
      <point x="152" y="0"/>
      <point x="130" y="0" type="curve" smooth="yes"/>
      <point x="111" y="0"/>
      <point x="97" y="10"/>
      <point x="85" y="24" type="curve" smooth="yes"/>
      <point x="73" y="40"/>
      <point x="62" y="62"/>
      <point x="52" y="102" type="curve"/>
    </contour>
  </outline>
</glyph>
<glyph name="q" format="1">
  <advance width="257"/>
  <unicode hex="0071"/>
  <outline>
    <contour>
      <point x="218" y="-248" type="line"/>
      <point x="218" y="532" type="line"/>
      <point x="205" y="532" type="line"/>
      <point x="207" y="455" type="line"/>
      <point x="205" y="455" type="line"/>
      <point x="199" y="477"/>
      <point x="188" y="501"/>
      <point x="172" y="520" type="curve" smooth="yes"/>
      <point x="161" y="535"/>
      <point x="147" y="544"/>
      <point x="129" y="544" type="curve" smooth="yes"/>
      <point x="98" y="544"/>
      <point x="74" y="519"/>
      <point x="55" y="465" type="curve" smooth="yes"/>
      <point x="37" y="419"/>
      <point x="27" y="354"/>
      <point x="27" y="267" type="curve" smooth="yes"/>
      <point x="27" y="190"/>
      <point x="38" y="117"/>
      <point x="58" y="63" type="curve" smooth="yes"/>
      <point x="75" y="19"/>
      <point x="98" y="-12"/>
      <point x="128" y="-12" type="curve" smooth="yes"/>
      <point x="140" y="-12"/>
      <point x="157" y="-10"/>
      <point x="174" y="11" type="curve" smooth="yes"/>
      <point x="184" y="24"/>
      <point x="195" y="48"/>
      <point x="204" y="74" type="curve"/>
      <point x="205" y="74" type="line"/>
      <point x="205" y="-248" type="line"/>
    </contour>
    <contour>
      <point x="205" y="102" type="line"/>
      <point x="194" y="62"/>
      <point x="183" y="40"/>
      <point x="173" y="25" type="curve" smooth="yes"/>
      <point x="160" y="10"/>
      <point x="145" y="0"/>
      <point x="126" y="0" type="curve" smooth="yes"/>
      <point x="105" y="0"/>
      <point x="84" y="21"/>
      <point x="68" y="72" type="curve" smooth="yes"/>
      <point x="53" y="112"/>
      <point x="40" y="176"/>
      <point x="40" y="267" type="curve" smooth="yes"/>
      <point x="40" y="336"/>
      <point x="47" y="408"/>
      <point x="64" y="456" type="curve" smooth="yes"/>
      <point x="80" y="503"/>
      <point x="100" y="532"/>
      <point x="126" y="532" type="curve" smooth="yes"/>
      <point x="140" y="532"/>
      <point x="152" y="527"/>
      <point x="166" y="509" type="curve" smooth="yes"/>
      <point x="178" y="492"/>
      <point x="193" y="466"/>
      <point x="205" y="431" type="curve"/>
    </contour>
  </outline>
</glyph>
<glyph name="r" format="1">
  <advance width="172"/>
  <unicode hex="0072"/>
  <outline>
    <contour>
      <point x="50" y="453" type="line"/>
      <point x="52" y="532" type="line"/>
      <point x="39" y="532" type="line"/>
      <point x="39" y="0" type="line"/>
      <point x="52" y="0" type="line"/>
      <point x="52" y="432" type="line"/>
      <point x="64" y="462"/>
      <point x="78" y="488"/>
      <point x="90" y="507" type="curve" smooth="yes"/>
      <point x="104" y="526"/>
      <point x="115" y="533"/>
      <point x="129" y="533" type="curve" smooth="yes"/>
      <point x="137" y="533"/>
      <point x="142" y="529"/>
      <point x="148" y="521" type="curve" smooth="yes"/>
      <point x="153" y="514"/>
      <point x="157" y="505"/>
      <point x="161" y="493" type="curve"/>
      <point x="165" y="502" type="line"/>
      <point x="160" y="514"/>
      <point x="156" y="523"/>
      <point x="150" y="531" type="curve" smooth="yes"/>
      <point x="143" y="541"/>
      <point x="135" y="544"/>
      <point x="127" y="544" type="curve" smooth="yes"/>
      <point x="111" y="544"/>
      <point x="98" y="533"/>
      <point x="86" y="518" type="curve" smooth="yes"/>
      <point x="74" y="501"/>
      <point x="63" y="480"/>
      <point x="52" y="453" type="curve"/>
    </contour>
  </outline>
</glyph>
<glyph name="s" format="1">
  <advance width="215"/>
  <unicode hex="0073"/>
  <outline>
    <contour>
      <point x="185" y="465" type="line"/>
      <point x="182" y="490"/>
      <point x="173" y="507"/>
      <point x="161" y="520" type="curve" smooth="yes"/>
      <point x="147" y="539"/>
      <point x="129" y="544"/>
      <point x="108" y="544" type="curve" smooth="yes"/>
      <point x="83" y="544"/>
      <point x="65" y="534"/>
      <point x="51" y="516" type="curve" smooth="yes"/>
      <point x="36" y="497"/>
      <point x="28" y="466"/>
      <point x="28" y="425" type="curve" smooth="yes"/>
      <point x="28" y="394"/>
      <point x="33" y="368"/>
      <point x="42" y="346" type="curve" smooth="yes"/>
      <point x="54" y="320"/>
      <point x="67" y="309"/>
      <point x="105" y="286" type="curve" smooth="yes"/>
      <point x="140" y="265"/>
      <point x="156" y="252"/>
      <point x="169" y="222" type="curve" smooth="yes"/>
      <point x="178" y="200"/>
      <point x="181" y="169"/>
      <point x="181" y="143" type="curve" smooth="yes"/>
      <point x="181" y="101"/>
      <point x="173" y="68"/>
      <point x="161" y="45" type="curve" smooth="yes"/>
      <point x="146" y="14"/>
      <point x="126" y="2"/>
      <point x="104" y="2" type="curve" smooth="yes"/>
      <point x="69" y="2"/>
      <point x="40" y="36"/>
      <point x="33" y="82" type="curve"/>
      <point x="20" y="71" type="line"/>
      <point x="25" y="45"/>
      <point x="40" y="24"/>
      <point x="50" y="11" type="curve" smooth="yes"/>
      <point x="68" y="-4"/>
      <point x="89" y="-12"/>
      <point x="106" y="-12" type="curve" smooth="yes"/>
      <point x="135" y="-12"/>
      <point x="157" y="6"/>
      <point x="172" y="35" type="curve" smooth="yes"/>
      <point x="189" y="66"/>
      <point x="194" y="96"/>
      <point x="194" y="145" type="curve" smooth="yes"/>
      <point x="194" y="179"/>
      <point x="188" y="212"/>
      <point x="179" y="232" type="curve" smooth="yes"/>
      <point x="168" y="261"/>
      <point x="153" y="275"/>
      <point x="114" y="299" type="curve" smooth="yes"/>
      <point x="72" y="324"/>
      <point x="63" y="332"/>
      <point x="52" y="358" type="curve" smooth="yes"/>
      <point x="45" y="377"/>
      <point x="41" y="401"/>
      <point x="41" y="424" type="curve" smooth="yes"/>
      <point x="41" y="460"/>
      <point x="48" y="485"/>
      <point x="60" y="502" type="curve" smooth="yes"/>
      <point x="73" y="524"/>
      <point x="90" y="530"/>
      <point x="109" y="530" type="curve" smooth="yes"/>
      <point x="147" y="530"/>
      <point x="168" y="496"/>
      <point x="173" y="455" type="curve"/>
    </contour>
  </outline>
</glyph>
<glyph name="t" format="1">
  <advance width="189"/>
  <unicode hex="0074"/>
  <outline>
    <contour>
      <point x="59" y="532" type="line"/>
      <point x="10" y="532" type="line"/>
      <point x="10" y="519" type="line"/>
      <point x="59" y="519" type="line"/>
      <point x="59" y="167" type="line" smooth="yes"/>
      <point x="59" y="17"/>
      <point x="87" y="-12"/>
      <point x="133" y="-12" type="curve" smooth="yes"/>
      <point x="156" y="-12"/>
      <point x="175" y="16"/>
      <point x="183" y="33" type="curve"/>
      <point x="177" y="47" type="line"/>
      <point x="168" y="30"/>
      <point x="152" y="0"/>
      <point x="131" y="0" type="curve" smooth="yes"/>
      <point x="93" y="0"/>
      <point x="72" y="32"/>
      <point x="72" y="172" type="curve" smooth="yes"/>
      <point x="72" y="519" type="line"/>
      <point x="164" y="519" type="line"/>
      <point x="164" y="532" type="line"/>
      <point x="72" y="532" type="line"/>
      <point x="72" y="643" type="line"/>
      <point x="59" y="643" type="line"/>
    </contour>
  </outline>
</glyph>
<glyph name="u" format="1">
  <advance width="253"/>
  <unicode hex="0075"/>
  <outline>
    <contour>
      <point x="38" y="532" type="line"/>
      <point x="38" y="142" type="line" smooth="yes"/>
      <point x="38" y="89"/>
      <point x="44" y="56"/>
      <point x="55" y="30" type="curve" smooth="yes"/>
      <point x="68" y="3"/>
      <point x="90" y="-12"/>
      <point x="107" y="-12" type="curve" smooth="yes"/>
      <point x="127" y="-12"/>
      <point x="144" y="-3"/>
      <point x="160" y="15" type="curve" smooth="yes"/>
      <point x="175" y="32"/>
      <point x="188" y="57"/>
      <point x="200" y="89" type="curve"/>
      <point x="203" y="89" type="line"/>
      <point x="201" y="0" type="line"/>
      <point x="214" y="0" type="line"/>
      <point x="214" y="532" type="line"/>
      <point x="201" y="532" type="line"/>
      <point x="201" y="109" type="line"/>
      <point x="183" y="69"/>
      <point x="165" y="41"/>
      <point x="151" y="25" type="curve" smooth="yes"/>
      <point x="135" y="8"/>
      <point x="120" y="-1"/>
      <point x="106" y="-1" type="curve" smooth="yes"/>
      <point x="83" y="-1"/>
      <point x="72" y="18"/>
      <point x="64" y="37" type="curve" smooth="yes"/>
      <point x="51" y="65"/>
      <point x="50" y="104"/>
      <point x="50" y="145" type="curve" smooth="yes"/>
      <point x="50" y="532" type="line"/>
    </contour>
  </outline>
</glyph>
<glyph name="v" format="1">
  <advance width="200"/>
  <unicode hex="0076"/>
  <outline>
    <contour>
      <point x="99" y="10" type="line"/>
      <point x="87" y="98"/>
      <point x="72" y="186"/>
      <point x="60" y="272" type="curve" smooth="yes"/>
      <point x="20" y="532" type="line"/>
      <point x="7" y="532" type="line"/>
      <point x="93" y="0" type="line"/>
      <point x="105" y="0" type="line"/>
      <point x="192" y="532" type="line"/>
      <point x="180" y="532" type="line"/>
      <point x="140" y="274" type="line" smooth="yes"/>
      <point x="124" y="178"/>
      <point x="112" y="101"/>
      <point x="101" y="10" type="curve"/>
    </contour>
  </outline>
</glyph>
<glyph name="w" format="1">
  <advance width="330"/>
  <unicode hex="0077"/>
  <outline>
    <contour>
      <point x="167" y="518" type="line"/>
      <point x="177" y="429"/>
      <point x="188" y="350"/>
      <point x="200" y="257" type="curve" smooth="yes"/>
      <point x="235" y="0" type="line"/>
      <point x="251" y="0" type="line"/>
      <point x="322" y="532" type="line"/>
      <point x="308" y="532" type="line"/>
      <point x="276" y="275" type="line" smooth="yes"/>
      <point x="266" y="190"/>
      <point x="254" y="103"/>
      <point x="245" y="13" type="curve"/>
      <point x="242" y="13" type="line"/>
      <point x="232" y="101"/>
      <point x="219" y="188"/>
      <point x="207" y="275" type="curve" smooth="yes"/>
      <point x="173" y="532" type="line"/>
      <point x="158" y="532" type="line"/>
      <point x="123" y="273" type="line" smooth="yes"/>
      <point x="111" y="187"/>
      <point x="99" y="104"/>
      <point x="89" y="13" type="curve"/>
      <point x="86" y="13" type="line"/>
      <point x="78" y="103"/>
      <point x="65" y="193"/>
      <point x="55" y="274" type="curve" smooth="yes"/>
      <point x="22" y="532" type="line"/>
      <point x="9" y="532" type="line"/>
      <point x="80" y="0" type="line"/>
      <point x="96" y="0" type="line"/>
      <point x="130" y="257" type="line" smooth="yes"/>
      <point x="142" y="348"/>
      <point x="153" y="428"/>
      <point x="163" y="518" type="curve"/>
    </contour>
  </outline>
</glyph>
<glyph name="x" format="1">
  <advance width="201"/>
  <unicode hex="0078"/>
  <outline>
    <contour>
      <point x="181" y="532" type="line"/>
      <point x="169" y="532" type="line"/>
      <point x="103" y="289" type="line"/>
      <point x="101" y="289" type="line"/>
      <point x="33" y="532" type="line"/>
      <point x="21" y="532" type="line"/>
      <point x="21" y="532" type="line"/>
      <point x="93" y="278" type="line"/>
      <point x="13" y="1" type="line"/>
      <point x="13" y="0" type="line"/>
      <point x="25" y="0" type="line"/>
      <point x="100" y="268" type="line"/>
      <point x="102" y="268" type="line"/>
      <point x="178" y="0" type="line"/>
      <point x="189" y="0" type="line"/>
      <point x="189" y="1" type="line"/>
      <point x="111" y="278" type="line"/>
    </contour>
  </outline>
</glyph>
<glyph name="y" format="1">
  <advance width="212"/>
  <unicode hex="0079"/>
  <outline>
    <contour>
      <point x="207" y="532" type="line"/>
      <point x="194" y="532" type="line"/>
      <point x="159" y="287" type="line" smooth="yes"/>
      <point x="148" y="205"/>
      <point x="135" y="120"/>
      <point x="124" y="34" type="curve"/>
      <point x="122" y="34" type="line"/>
      <point x="107" y="117"/>
      <point x="89" y="202"/>
      <point x="72" y="285" type="curve" smooth="yes"/>
      <point x="20" y="532" type="line"/>
      <point x="8" y="532" type="line"/>
      <point x="117" y="13" type="line"/>
      <point x="98" y="-112" type="line" smooth="yes"/>
      <point x="91" y="-149"/>
      <point x="83" y="-179"/>
      <point x="72" y="-203" type="curve" smooth="yes"/>
      <point x="61" y="-235"/>
      <point x="45" y="-249"/>
      <point x="28" y="-249" type="curve" smooth="yes"/>
      <point x="22" y="-249"/>
      <point x="15" y="-246"/>
      <point x="10" y="-240" type="curve" smooth="yes"/>
      <point x="3" y="-235"/>
      <point x="-1" y="-227"/>
      <point x="-6" y="-221" type="curve"/>
      <point x="-11" y="-232" type="line"/>
      <point x="-5" y="-240"/>
      <point x="0" y="-247"/>
      <point x="7" y="-252" type="curve" smooth="yes"/>
      <point x="13" y="-258"/>
      <point x="20" y="-261"/>
      <point x="28" y="-261" type="curve" smooth="yes"/>
      <point x="53" y="-261"/>
      <point x="71" y="-240"/>
      <point x="83" y="-212" type="curve" smooth="yes"/>
      <point x="96" y="-184"/>
      <point x="105" y="-145"/>
      <point x="109" y="-117" type="curve" smooth="yes"/>
    </contour>
  </outline>
</glyph>
<glyph name="z" format="1">
  <advance width="194"/>
  <unicode hex="007A"/>
  <outline>
    <contour>
      <point x="176" y="532" type="line"/>
      <point x="27" y="532" type="line"/>
      <point x="27" y="519" type="line"/>
      <point x="165" y="519" type="line"/>
      <point x="17" y="17" type="line"/>
      <point x="17" y="0" type="line"/>
      <point x="183" y="0" type="line"/>
      <point x="183" y="13" type="line"/>
      <point x="29" y="13" type="line"/>
      <point x="176" y="515" type="line"/>
    </contour>
  </outline>
</glyph>
<glyph name="braceleft" format="1">
  <advance width="162"/>
  <unicode hex="007B"/>
  <outline>
    <contour>
      <point x="12" y="286" type="line"/>
      <point x="30" y="281"/>
      <point x="45" y="271"/>
      <point x="56" y="252" type="curve" smooth="yes"/>
      <point x="67" y="232"/>
      <point x="73" y="207"/>
      <point x="73" y="152" type="curve" smooth="yes"/>
      <point x="73" y="-5" type="line" smooth="yes"/>
      <point x="73" y="-60"/>
      <point x="82" y="-95"/>
      <point x="93" y="-118" type="curve" smooth="yes"/>
      <point x="106" y="-143"/>
      <point x="130" y="-154"/>
      <point x="155" y="-156" type="curve"/>
      <point x="155" y="-145" type="line"/>
      <point x="134" y="-143"/>
      <point x="116" y="-133"/>
      <point x="104" y="-112" type="curve" smooth="yes"/>
      <point x="92" y="-93"/>
      <point x="87" y="-61"/>
      <point x="87" y="-8" type="curve" smooth="yes"/>
      <point x="87" y="157" type="line" smooth="yes"/>
      <point x="87" y="207"/>
      <point x="80" y="238"/>
      <point x="64" y="260" type="curve" smooth="yes"/>
      <point x="55" y="278"/>
      <point x="42" y="287"/>
      <point x="27" y="291" type="curve"/>
      <point x="27" y="292" type="line"/>
      <point x="43" y="296"/>
      <point x="55" y="305"/>
      <point x="64" y="323" type="curve" smooth="yes"/>
      <point x="80" y="345"/>
      <point x="87" y="376"/>
      <point x="87" y="426" type="curve" smooth="yes"/>
      <point x="87" y="591" type="line" smooth="yes"/>
      <point x="87" y="644"/>
      <point x="92" y="675"/>
      <point x="104" y="695" type="curve" smooth="yes"/>
      <point x="115" y="715"/>
      <point x="134" y="726"/>
      <point x="155" y="728" type="curve"/>
      <point x="155" y="739" type="line"/>
      <point x="130" y="737"/>
      <point x="106" y="726"/>
      <point x="93" y="701" type="curve" smooth="yes"/>
      <point x="82" y="678"/>
      <point x="73" y="643"/>
      <point x="73" y="588" type="curve" smooth="yes"/>
      <point x="73" y="432" type="line" smooth="yes"/>
      <point x="73" y="376"/>
      <point x="67" y="351"/>
      <point x="56" y="331" type="curve" smooth="yes"/>
      <point x="45" y="312"/>
      <point x="30" y="303"/>
      <point x="12" y="297" type="curve"/>
    </contour>
  </outline>
</glyph>
<glyph name="braceright" format="1">
  <advance width="162"/>
  <unicode hex="007D"/>
  <outline>
    <contour>
      <point x="149" y="297" type="line"/>
      <point x="131" y="303"/>
      <point x="117" y="312"/>
      <point x="106" y="331" type="curve" smooth="yes"/>
      <point x="94" y="351"/>
      <point x="88" y="376"/>
      <point x="88" y="432" type="curve" smooth="yes"/>
      <point x="88" y="588" type="line" smooth="yes"/>
      <point x="88" y="643"/>
      <point x="80" y="678"/>
      <point x="68" y="701" type="curve" smooth="yes"/>
      <point x="55" y="726"/>
      <point x="32" y="737"/>
      <point x="6" y="739" type="curve"/>
      <point x="6" y="728" type="line"/>
      <point x="27" y="726"/>
      <point x="46" y="715"/>
      <point x="58" y="695" type="curve" smooth="yes"/>
      <point x="69" y="675"/>
      <point x="75" y="644"/>
      <point x="75" y="591" type="curve" smooth="yes"/>
      <point x="75" y="426" type="line" smooth="yes"/>
      <point x="75" y="376"/>
      <point x="81" y="345"/>
      <point x="97" y="323" type="curve" smooth="yes"/>
      <point x="107" y="305"/>
      <point x="118" y="296"/>
      <point x="134" y="292" type="curve"/>
      <point x="134" y="291" type="line"/>
      <point x="119" y="287"/>
      <point x="107" y="278"/>
      <point x="97" y="260" type="curve" smooth="yes"/>
      <point x="81" y="238"/>
      <point x="75" y="207"/>
      <point x="75" y="157" type="curve" smooth="yes"/>
      <point x="75" y="-8" type="line" smooth="yes"/>
      <point x="75" y="-61"/>
      <point x="69" y="-93"/>
      <point x="58" y="-112" type="curve" smooth="yes"/>
      <point x="45" y="-133"/>
      <point x="27" y="-143"/>
      <point x="6" y="-145" type="curve"/>
      <point x="6" y="-156" type="line"/>
      <point x="32" y="-154"/>
      <point x="55" y="-143"/>
      <point x="68" y="-118" type="curve" smooth="yes"/>
      <point x="80" y="-95"/>
      <point x="88" y="-60"/>
      <point x="88" y="-5" type="curve" smooth="yes"/>
      <point x="88" y="152" type="line" smooth="yes"/>
      <point x="88" y="207"/>
      <point x="94" y="232"/>
      <point x="106" y="252" type="curve" smooth="yes"/>
      <point x="117" y="271"/>
      <point x="131" y="281"/>
      <point x="149" y="286" type="curve"/>
    </contour>
  </outline>
</glyph>
<glyph name="paragraph" format="1">
  <advance width="292"/>
  <unicode hex="00B6"/>
  <outline>
    <contour>
      <point x="152" y="-131" type="line"/>
      <point x="165" y="-131" type="line"/>
      <point x="165" y="696" type="line"/>
      <point x="221" y="696" type="line"/>
      <point x="221" y="-131" type="line"/>
      <point x="235" y="-131" type="line"/>
      <point x="235" y="709" type="line"/>
      <point x="165" y="709" type="line" smooth="yes"/>
      <point x="113" y="709"/>
      <point x="74" y="689"/>
      <point x="48" y="654" type="curve" smooth="yes"/>
      <point x="22" y="621"/>
      <point x="9" y="572"/>
      <point x="9" y="515" type="curve" smooth="yes"/>
      <point x="9" y="445"/>
      <point x="23" y="397"/>
      <point x="48" y="366" type="curve" smooth="yes"/>
      <point x="72" y="335"/>
      <point x="108" y="321"/>
      <point x="152" y="320" type="curve"/>
    </contour>
  </outline>
</glyph>
<glyph name="M" format="1">
  <advance width="1151"/>
  <unicode hex="00FF"/>
  <outline>
    <contour>
      <point x="575" y="14" type="line"/>
      <point x="505" y="130"/>
      <point x="362" y="365"/>
      <point x="154" y="709" type="curve"/>
      <point x="139" y="709" type="line"/>
      <point x="139" y="0" type="line"/>
      <point x="151" y="0" type="line"/>
      <point x="151" y="344"/>
      <point x="151" y="572"/>
      <point x="149" y="690" type="curve"/>
      <point x="152" y="690" type="line"/>
      <point x="222" y="572"/>
      <point x="360" y="345"/>
      <point x="569" y="0" type="curve"/>
      <point x="584" y="0" type="line"/>
      <point x="792" y="344"/>
      <point x="931" y="572"/>
      <point x="1001" y="690" type="curve"/>
      <point x="1004" y="690" type="line"/>
      <point x="1001" y="572"/>
      <point x="1001" y="344"/>
      <point x="1001" y="0" type="curve"/>
      <point x="1015" y="0" type="line"/>
      <point x="1015" y="709" type="line"/>
      <point x="1000" y="709" type="line"/>
      <point x="792" y="366"/>
      <point x="648" y="130"/>
      <point x="578" y="14" type="curve"/>
    </contour>
  </outline>
</glyph>
<glyph name="endash" format="1">
  <advance width="219"/>
  <unicode hex="2013"/>
  <outline>
    <contour>
      <point x="22" y="255" type="line"/>
      <point x="22" y="245" type="line"/>
      <point x="197" y="245" type="line"/>
      <point x="197" y="255" type="line"/>
    </contour>
  </outline>
</glyph>
<glyph name="emdash" format="1">
  <advance width="439"/>
  <unicode hex="2014"/>
  <outline>
    <contour>
      <point x="22" y="255" type="line"/>
      <point x="22" y="245" type="line"/>
      <point x="417" y="245" type="line"/>
      <point x="417" y="255" type="line"/>
    </contour>
  </outline>
</glyph>
<glyph name="bullet" format="1">
  <advance width="207"/>
  <unicode hex="2022"/>
  <outline>
    <contour>
      <point x="104" y="449" type="line"/>
      <point x="65" y="449"/>
      <point x="33" y="401"/>
      <point x="33" y="341" type="curve" smooth="yes"/>
      <point x="33" y="281"/>
      <point x="65" y="233"/>
      <point x="104" y="233" type="curve" smooth="yes"/>
      <point x="142" y="233"/>
      <point x="174" y="281"/>
      <point x="174" y="341" type="curve" smooth="yes"/>
      <point x="174" y="401"/>
      <point x="142" y="449"/>
      <point x="105" y="449" type="curve"/>
    </contour>
  </outline>
</glyph>
<glyph name="trademark" format="1">
  <advance width="455"/>
  <unicode hex="2122"/>
  <outline>
    <contour>
      <point x="172" y="709" type="line"/>
      <point x="10" y="709" type="line"/>
      <point x="10" y="697" type="line"/>
      <point x="84" y="697" type="line"/>
      <point x="84" y="353" type="line"/>
      <point x="98" y="353" type="line"/>
      <point x="98" y="697" type="line"/>
      <point x="172" y="697" type="line"/>
    </contour>
    <contour>
      <point x="291" y="364" type="line"/>
      <point x="283" y="422"/>
      <point x="270" y="479"/>
      <point x="257" y="537" type="curve" smooth="yes"/>
      <point x="215" y="709" type="line"/>
      <point x="195" y="709" type="line"/>
      <point x="195" y="353" type="line"/>
      <point x="206" y="353" type="line"/>
      <point x="206" y="525" type="line" smooth="yes"/>
      <point x="206" y="583"/>
      <point x="205" y="639"/>
      <point x="204" y="700" type="curve"/>
      <point x="207" y="700" type="line"/>
      <point x="218" y="640"/>
      <point x="232" y="584"/>
      <point x="246" y="526" type="curve" smooth="yes"/>
      <point x="287" y="353" type="line"/>
      <point x="299" y="353" type="line"/>
      <point x="341" y="525" type="line" smooth="yes"/>
      <point x="355" y="582"/>
      <point x="370" y="639"/>
      <point x="381" y="700" type="curve"/>
      <point x="384" y="700" type="line"/>
      <point x="383" y="640"/>
      <point x="381" y="583"/>
      <point x="381" y="525" type="curve" smooth="yes"/>
      <point x="381" y="353" type="line"/>
      <point x="395" y="353" type="line"/>
      <point x="395" y="709" type="line"/>
      <point x="374" y="709" type="line"/>
      <point x="331" y="537" type="line" smooth="yes"/>
      <point x="317" y="480"/>
      <point x="303" y="423"/>
      <point x="294" y="364" type="curve"/>
    </contour>
  </outline>
</glyph>
